<svg width="688" height="459" viewBox="0 0 688 459" fill="none" xmlns="http://www.w3.org/2000/svg">
<path d="M228.15 190.495C226.882 192.426 226.03 194.548 225.576 196.735L222.094 197.064V203.813L225.577 204.142C226.031 206.329 226.883 208.451 228.15 210.382L225.925 213.071L230.695 217.844L233.382 215.618C235.312 216.885 237.432 217.739 239.618 218.193L239.946 221.678H246.69L247.019 218.194C249.205 217.739 251.325 216.886 253.255 215.619L255.941 217.845L260.71 213.072L258.486 210.383C259.753 208.452 260.605 206.33 261.059 204.143L264.542 203.814V197.065L261.059 196.736C260.605 194.549 259.753 192.427 258.485 190.496L260.71 187.807L255.941 183.035L253.255 185.26C251.325 183.993 249.205 183.139 247.019 182.684L246.69 179.2H239.946L239.618 182.684C237.432 183.139 235.312 183.992 233.382 185.259L230.695 183.033L225.925 187.806L228.15 190.495ZM249.773 193.978C253.338 197.546 253.338 203.331 249.773 206.899C246.208 210.467 240.427 210.467 236.862 206.899C233.296 203.33 233.297 197.546 236.862 193.978C240.427 190.41 246.208 190.41 249.773 193.978Z" fill="#F5F5F5"/>
<path d="M397.238 204.509C396.413 205.766 395.858 207.149 395.562 208.574L393.293 208.788V213.186L395.562 213.399C395.858 214.825 396.414 216.207 397.239 217.465L395.79 219.217L398.897 222.326L400.647 220.876C401.905 221.702 403.285 222.257 404.71 222.553L404.924 224.824H409.318L409.532 222.554C410.956 222.257 412.337 221.702 413.594 220.876L415.345 222.326L418.452 219.217L417.002 217.465C417.828 216.207 418.383 214.825 418.679 213.399L420.948 213.186V208.788L418.679 208.574C418.384 207.149 417.828 205.767 417.002 204.509L418.452 202.757L415.345 199.648L413.594 201.098C412.337 200.272 410.955 199.716 409.532 199.42L409.318 197.15H404.924L404.71 199.42C403.285 199.716 401.905 200.272 400.647 201.098L398.897 199.648L395.79 202.757L397.238 204.509ZM411.326 206.777C413.649 209.101 413.649 212.871 411.326 215.195C409.003 217.519 405.237 217.519 402.914 215.195C400.591 212.871 400.591 209.101 402.914 206.777C405.237 204.453 409.003 204.453 411.326 206.777Z" fill="#F5F5F5"/>
<path d="M424.52 237.496C423.669 238.793 423.097 240.216 422.792 241.685L420.455 241.906V246.435L422.792 246.655C423.097 248.123 423.669 249.547 424.52 250.844L423.027 252.648L426.228 255.851L428.031 254.357C429.327 255.208 430.749 255.781 432.216 256.086L432.436 258.425H436.962L437.183 256.086C438.65 255.781 440.073 255.208 441.368 254.357L443.171 255.851L446.372 252.648L444.879 250.843C445.729 249.547 446.302 248.123 446.606 246.655L448.944 246.435V241.906L446.606 241.685C446.302 240.217 445.729 238.794 444.879 237.497L446.372 235.693L443.171 232.49L441.368 233.983C440.072 233.132 438.649 232.559 437.183 232.255L436.962 229.916H432.436L432.216 232.255C430.749 232.559 429.327 233.132 428.031 233.983L426.228 232.49L423.027 235.693L424.52 237.496ZM439.032 239.835C441.424 242.229 441.424 246.112 439.032 248.506C436.639 250.901 432.759 250.901 430.367 248.506C427.974 246.111 427.974 242.229 430.367 239.835C432.76 237.439 436.64 237.439 439.032 239.835Z" fill="#E0E0E0"/>
<path d="M92.0862 256.783C90.0836 259.835 88.737 263.187 88.0196 266.644L82.5165 267.163L82.5156 277.827L88.0187 278.346C88.7351 281.803 90.0827 285.155 92.0853 288.207L88.5709 292.455L96.1068 299.995L100.351 296.478C103.401 298.482 106.751 299.83 110.205 300.547L110.724 306.054L121.38 306.053L121.899 300.547C125.353 299.829 128.702 298.482 131.753 296.478L135.997 299.994L143.533 292.454L140.019 288.205C142.02 285.153 143.368 281.801 144.084 278.345L149.586 277.827L149.587 267.162L144.085 266.643C143.368 263.187 142.02 259.835 140.019 256.783L143.533 252.535L135.998 244.994L131.753 248.511C128.703 246.507 125.354 245.159 121.9 244.442L121.381 238.935L110.725 238.935L110.206 244.443C106.752 245.16 103.402 246.508 100.353 248.512L96.1078 244.995L88.5719 252.537L92.0862 256.783ZM126.253 262.287C131.887 267.924 131.887 277.066 126.253 282.703C120.619 288.341 111.485 288.34 105.852 282.703C100.218 277.066 100.218 267.925 105.852 262.287C111.486 256.649 120.619 256.649 126.253 262.287Z" fill="#F5F5F5"/>
<path d="M536.529 262.504C535.241 264.467 534.374 266.623 533.913 268.848L530.374 269.181V276.04L533.914 276.374C534.375 278.597 535.241 280.753 536.53 282.717L534.269 285.45L539.116 290.3L541.847 288.039C543.809 289.327 545.963 290.194 548.185 290.656L548.518 294.198H555.372L555.705 290.657C557.928 290.195 560.082 289.327 562.044 288.039L564.775 290.3L569.622 285.45L567.362 282.717C568.65 280.753 569.516 278.598 569.977 276.374L573.516 276.041L573.517 269.182L569.978 268.848C569.517 266.624 568.65 264.468 567.362 262.505L569.622 259.772L564.775 254.922L562.044 257.184C560.082 255.895 557.927 255.027 555.706 254.565L555.372 251.023H548.518L548.185 254.565C545.963 255.027 543.808 255.894 541.847 257.183L539.116 254.921L534.269 259.771L536.529 262.504ZM558.507 266.044C562.13 269.67 562.13 275.55 558.507 279.177C554.882 282.804 549.007 282.803 545.383 279.177C541.759 275.55 541.76 269.671 545.383 266.044C549.008 262.418 554.883 262.418 558.507 266.044Z" fill="#F5F5F5"/>
<path d="M82.6208 317.815C81.6035 319.365 80.9201 321.066 80.5559 322.823L77.7617 323.086V328.501L80.5559 328.765C80.9201 330.52 81.6044 332.222 82.6208 333.773L80.8357 335.93L84.6619 339.759L86.8176 337.973C88.3661 338.99 90.0668 339.675 91.8217 340.04L92.085 342.836H97.4963L97.7596 340.04C99.5135 339.675 101.215 338.99 102.764 337.973L104.919 339.759L108.746 335.93L106.961 333.773C107.978 332.223 108.662 330.521 109.026 328.765L111.82 328.501V323.086L109.026 322.823C108.662 321.067 107.978 319.365 106.961 317.816L108.746 315.659L104.919 311.83L102.764 313.615C101.215 312.597 99.5135 311.913 97.7596 311.549L97.4963 308.752H92.085L91.8217 311.549C90.0677 311.913 88.367 312.597 86.8176 313.615L84.6619 311.829L80.8357 315.658L82.6208 317.815ZM99.9713 320.609C102.832 323.473 102.832 328.114 99.9713 330.976C97.1101 333.84 92.4721 333.84 89.6109 330.976C86.7498 328.113 86.7507 323.472 89.6109 320.608C92.4721 317.747 97.1101 317.747 99.9713 320.609Z" fill="#E0E0E0"/>
<path d="M431.717 194.726C430.483 196.606 429.654 198.671 429.212 200.801L425.821 201.121V207.691L429.212 208.01C429.653 210.14 430.483 212.205 431.717 214.086L429.551 216.703L434.194 221.349L436.809 219.182C438.688 220.417 440.752 221.247 442.88 221.689L443.199 225.082H449.765L450.084 221.69C452.212 221.248 454.276 220.418 456.155 219.183L458.77 221.35L463.413 216.704L461.248 214.086C462.482 212.206 463.311 210.141 463.753 208.011L467.143 207.692L467.143 201.122L463.753 200.802C463.311 198.672 462.481 196.608 461.248 194.728L463.413 192.11L458.77 187.464L456.155 189.631C454.275 188.396 452.212 187.565 450.084 187.124L449.765 183.731H443.199L442.88 187.124C440.752 187.566 438.689 188.396 436.809 189.631L434.194 187.464L429.551 192.11L431.717 194.726ZM452.767 198.117C456.237 201.591 456.238 207.222 452.767 210.695C449.296 214.169 443.668 214.169 440.198 210.695C436.727 207.222 436.727 201.591 440.198 198.117C443.668 194.644 449.296 194.644 452.767 198.117Z" fill="#E0E0E0"/>
<path d="M151.91 120.753L65.4746 141.309L80.1797 203.233L166.615 182.678L151.91 120.753Z" fill="#A8FFC8"/>
<path d="M149.108 123.975L69.4258 142.925L82.982 200.011L162.664 181.062L149.108 123.975Z" fill="white"/>
<path d="M82.9901 200.006L80.9453 191.398C83.8432 181.695 93.311 166.991 97.4032 165.823C104.196 163.886 117.834 173.725 117.834 173.725C117.834 173.725 131.306 150.187 135.651 148.123C142.576 144.833 157.866 160.823 157.866 160.823L162.671 181.053L82.9901 200.006Z" fill="#A8FFC8"/>
<path d="M118.915 150.445C119.513 154.384 116.808 158.063 112.872 158.662C108.936 159.261 105.26 156.554 104.661 152.615C104.063 148.675 106.768 144.997 110.704 144.398C114.641 143.798 118.317 146.506 118.915 150.445Z" fill="#A8FFC8"/>
<path d="M565.649 81.6045L456.727 77.1318L453.527 155.166L562.449 159.639L565.649 81.6045Z" fill="#A8FFC8"/>
<path d="M561.268 84.4777L460.856 80.3545L457.907 152.293L558.318 156.416L561.268 84.4777Z" fill="white"/>
<path d="M457.883 152.302L458.328 141.455C464.974 130.958 481.042 116.742 486.263 116.725C494.93 116.695 507.769 132.854 507.769 132.854C507.769 132.854 531.502 109.536 537.319 108.545C546.591 106.965 559.337 130.936 559.337 130.936L558.291 156.428L457.883 152.302Z" fill="#A8FFC8"/>
<path d="M516.779 105.721C516.177 110.572 511.759 114.017 506.911 113.414C502.063 112.812 498.621 108.391 499.223 103.539C499.824 98.6878 504.242 95.2435 509.09 95.8457C513.938 96.4479 517.381 100.869 516.779 105.721Z" fill="#A8FFC8"/>
<path d="M625.173 210.967L565.822 199.905L557.909 242.425L617.259 253.486L625.173 210.967Z" fill="#A8FFC8"/>
<path d="M622.545 212.197L567.832 201.999L560.537 241.197L615.25 251.394L622.545 212.197Z" fill="white"/>
<path d="M560.518 241.218L561.618 235.308C566.09 230.08 576.02 223.557 578.884 223.96C583.636 224.629 589.399 234.502 589.399 234.502C589.399 234.502 604.249 223.596 607.515 223.512C612.722 223.379 617.817 237.526 617.817 237.526L615.231 251.418L560.518 241.218Z" fill="#A8FFC8"/>
<path d="M596.479 220.341C595.766 222.952 593.072 224.491 590.462 223.778C587.852 223.064 586.315 220.368 587.028 217.756C587.741 215.145 590.435 213.606 593.045 214.319C595.653 215.033 597.192 217.729 596.479 220.341Z" fill="#A8FFC8"/>
<path d="M322.091 65.1816C322.226 65.1826 322.334 65.2936 322.333 65.4286C322.332 65.5149 322.287 65.5938 322.212 65.6379L300.982 76.8246L299.97 77.3644L289.103 83.0826L251.706 84.3431C251.571 84.3421 251.463 84.232 251.464 84.0961C251.465 84.0098 251.511 83.9309 251.585 83.8868L284.235 66.6817C284.536 66.5201 284.871 66.432 285.213 66.4219L296.954 66.0161L298.101 65.9831L322.091 65.1816Z" fill="#A8FFC8"/>
<path d="M306.637 69.5255C305.892 68.3147 296.938 69.5696 286.272 72.3998C275.606 75.23 267.206 78.5779 267.159 79.999L271.545 96.5542C271.627 96.8617 271.941 97.0453 272.249 96.9636C272.251 96.9627 272.254 96.9618 272.257 96.9618L310.638 86.7793C310.946 86.7022 311.134 86.3901 311.057 86.0807C311.056 86.078 311.056 86.0752 311.055 86.0725L306.67 69.5173L306.637 69.5255Z" fill="#A8FFC8"/>
<path d="M303.409 82.5832L304.334 86.0762L304.056 86.1497L303.284 84.052L303.643 86.2598L303.188 86.381L302.408 84.2852L302.767 86.493L302.312 86.6142L301.532 84.5184L301.9 86.7234L301.622 86.7969L300.696 83.3039C300.558 82.7567 300.761 82.1802 301.211 81.8397L297.017 66.0106L298.163 65.9775L302.289 81.5542C302.831 81.646 303.269 82.049 303.409 82.5832Z" fill="#A8FFC8"/>
<path d="M451.122 45.1654C396.056 48.0207 378.925 95.8872 372.041 118.994C360.773 156.827 352.983 175.508 324.664 177.405C295.092 179.394 284.466 154.033 253.283 128.07C217.011 97.8349 158.233 99.8846 122.124 169.737C81.671 248.053 126.978 327.194 203.387 385.513C247.062 418.859 290.962 425.283 355.481 411.527C467.958 387.532 539.533 298.509 556.971 195.781C566.883 137.482 541.869 40.4542 451.122 45.1654Z" fill="#18A370"/>
<path opacity="0.7" d="M451.122 45.1654C396.056 48.0207 378.925 95.8872 372.041 118.994C360.773 156.827 352.983 175.508 324.664 177.405C295.092 179.394 284.466 154.033 253.283 128.07C217.011 97.8349 158.233 99.8846 122.124 169.737C81.671 248.053 126.978 327.194 203.387 385.513C247.062 418.859 290.962 425.283 355.481 411.527C467.958 387.532 539.533 298.509 556.971 195.781C566.883 137.482 541.869 40.4542 451.122 45.1654Z" fill="#92E3A9"/>
<path d="M96.5932 366.346L92.5469 365.778C93.2615 360.73 97.484 351.173 108.275 351.173C121.049 351.173 127.417 358.556 128.05 365.887L124.004 366.237C123.532 360.757 118.473 355.222 108.263 355.222C98.36 355.223 96.6868 365.9 96.5932 366.346Z" fill="#263238"/>
<path d="M78.2073 362.782H143.94C147.538 362.782 150.455 365.701 150.455 369.301V403.319C150.455 406.919 147.537 409.838 143.94 409.838H78.2073C74.6095 409.838 71.6924 406.919 71.6924 403.319V369.302C71.6924 365.701 74.6095 362.782 78.2073 362.782Z" fill="#263238"/>
<path opacity="0.2" d="M78.2073 362.782H143.94C147.538 362.782 150.455 365.701 150.455 369.301V403.319C150.455 406.919 147.537 409.838 143.94 409.838H78.2073C74.6095 409.838 71.6924 406.919 71.6924 403.319V369.302C71.6924 365.701 74.6095 362.782 78.2073 362.782Z" fill="white"/>
<path d="M128.09 410.567C72.4069 410.567 69.709 372.352 69.709 371.947L71.9748 367.52C72.0693 368.937 76.4532 406.49 128.129 406.49C149.401 406.49 167.76 406.49 169.621 402.441C171.253 398.864 163.282 389.672 150.494 374.944V369.248C166.789 388.025 176.015 398.122 173.303 404.075C170.445 410.325 158.144 410.567 128.09 410.567Z" fill="#263238"/>
<path d="M600.465 380.157H595.332V397.059H600.465V380.157Z" fill="#263238"/>
<path d="M597.831 382.871C589.842 382.873 581.976 380.896 574.936 377.117L577.366 372.588C598.57 383.928 624.946 375.918 636.277 354.698C641.793 344.367 642.92 332.25 639.404 321.078C638.027 316.652 635.94 312.479 633.227 308.722C629.343 303.326 624.281 298.887 618.425 295.742L620.845 291.212C623.546 292.665 626.107 294.365 628.494 296.29C631.867 299.017 634.859 302.185 637.392 305.709C640.428 309.909 642.76 314.576 644.297 319.528C652.382 345.184 638.153 372.542 612.515 380.633C607.764 382.132 602.811 382.893 597.829 382.888V382.871H597.831Z" fill="#263238"/>
<g opacity="0.3">
<path d="M597.831 382.871C589.842 382.873 581.976 380.896 574.936 377.117L577.366 372.588C598.57 383.928 624.946 375.918 636.277 354.698C641.793 344.367 642.92 332.25 639.404 321.078C638.027 316.652 635.94 312.479 633.227 308.722C629.343 303.326 624.281 298.887 618.425 295.742L620.845 291.212C623.546 292.665 626.107 294.365 628.494 296.29C631.867 299.017 634.859 302.185 637.392 305.709C640.428 309.909 642.76 314.576 644.297 319.528C652.382 345.184 638.153 372.542 612.515 380.633C607.764 382.132 602.811 382.893 597.829 382.888V382.871H597.831Z" fill="white"/>
</g>
<path d="M573.284 381.399C573.071 381.401 572.862 381.348 572.677 381.244C572.069 380.909 571.838 380.15 572.155 379.532L621.385 287.627C621.718 287.001 622.496 286.763 623.122 287.096C623.748 287.429 623.985 288.208 623.652 288.834L574.413 380.705C574.193 381.127 573.759 381.393 573.284 381.399Z" fill="#263238"/>
<g opacity="0.4">
<path d="M573.284 381.399C573.071 381.401 572.862 381.348 572.677 381.244C572.069 380.909 571.838 380.15 572.155 379.532L621.385 287.627C621.718 287.001 622.496 286.763 623.122 287.096C623.748 287.429 623.985 288.208 623.652 288.834L574.413 380.705C574.193 381.127 573.759 381.393 573.284 381.399Z" fill="white"/>
</g>
<path d="M588.514 395.809H607.285C608.542 395.809 609.561 396.828 609.561 398.086V402.281H586.246V398.086C586.246 396.832 587.26 395.813 588.514 395.809Z" fill="#263238"/>
<path d="M599.825 296.643C620.532 297.706 636.457 315.366 635.395 336.088C634.333 356.81 616.685 372.747 595.978 371.684C575.271 370.621 559.345 352.961 560.408 332.239V332.235C561.472 311.514 579.119 295.579 599.825 296.643Z" fill="#1EB57D"/>
<path opacity="0.2" d="M635.391 336.088C634.334 356.792 616.706 372.718 596.017 371.66C575.329 370.603 559.414 352.962 560.471 332.258C561.527 311.554 579.156 295.628 599.844 296.686C603.172 296.855 606.463 297.469 609.63 298.509C613.427 299.751 616.999 301.601 620.205 303.988C630.332 311.457 636.037 323.515 635.391 336.088Z" fill="white"/>
<path opacity="0.5" d="M619.768 303.646C619.711 303.617 619.656 303.583 619.606 303.543C619.501 303.452 619.386 303.375 619.263 303.312C617.706 302.455 618.142 305.478 616.697 306.163C615.251 306.848 612.701 305.615 613.009 304.725C613.317 303.834 610.391 301.359 609.587 300.965C608.284 300.497 606.848 301.175 606.38 302.479C606.282 302.752 606.233 303.039 606.233 303.328C606.113 305.897 607.524 307.421 607.131 308.2C606.737 308.98 606.746 309.219 604.153 310.46C601.561 311.701 599.687 310.118 598.121 311.531C596.555 312.943 598.583 313.731 597.958 317.156C597.334 320.581 596.41 318.124 594.536 318.492C592.662 318.86 593.731 316.6 593.971 315.281C594.21 313.962 592.26 313.569 591.404 313.466C590.548 313.363 588.41 313.106 588.683 310.452C588.958 307.798 588.82 305.315 585.184 305.52C583.309 305.641 582.292 302.952 581.761 300.247C572.163 304.824 564.946 313.249 561.894 323.442C562.091 323.399 562.262 323.673 562.536 324.358C563.392 326.499 564.188 328.638 565.275 329.94C566.253 330.987 566.581 332.485 566.131 333.844C565.677 334.897 563.469 335.557 563.427 336.284C563.384 337.012 561.314 337.997 560.989 338.665C560.933 338.817 560.783 338.915 560.621 338.904C561.928 349.217 567.461 358.521 575.894 364.591C576.827 362.159 578.46 360.233 579.556 360.173C581.849 360.052 588.924 358.932 586.324 355.806C583.723 352.681 580.942 349.812 580.942 349.812C581.486 348.989 582.099 348.213 582.773 347.491C583.192 347.226 581.832 346.447 584.219 346.19C586.605 345.933 586.785 345.916 585.784 344.769C584.784 343.621 583.132 344.494 584.228 343.057C585.323 341.618 586.521 340.488 587.702 342.081C588.882 343.673 588.164 344.521 588.558 344.992C588.951 345.463 592.485 344.735 592.485 344.735C592.485 344.735 593.4 346.011 593.007 346.293C592.358 347.051 591.766 347.855 591.235 348.7C590.949 349.499 590.484 350.222 589.875 350.815C589.157 351.234 591.843 353.965 592.647 354.385C593.452 354.804 593.785 355.147 594.478 354.967C595.171 354.787 596.514 353.34 597.003 352.903C597.491 352.466 600.425 353.536 600.425 353.536C601.527 354.175 602.562 354.924 603.514 355.771C604.489 356.739 606.002 356.91 607.167 356.182C607.775 355.634 607.741 354.144 608.878 354.658C610.016 355.172 610.401 355.703 611.188 358.469C611.975 361.235 616.655 365.293 616.074 367.005C619.535 365.099 622.669 362.65 625.357 359.753C622.047 358.649 620.814 357.373 620.317 356.645C619.676 355.695 620.052 355.686 620.412 354.076C620.772 352.466 623.791 351.508 624.279 351.071C624.767 350.634 627.119 347.706 628.275 347.398C629.43 347.089 629.345 345.548 629.345 345.548C629.345 345.548 629.559 345.95 630.029 344.931C630.5 343.912 629.986 342.867 631.544 341.455C632.549 340.685 633.722 340.163 634.966 339.931C635.171 338.64 635.305 337.34 635.368 336.035C635.489 333.748 635.398 331.455 635.094 329.186L631.021 330.735C630.067 330.752 629.114 330.66 628.18 330.462C627.735 330.205 625.613 328.835 623.97 329.674C622.327 330.513 622.165 329.118 619.085 328.612C616.004 328.107 620.599 323.748 621.317 323.097C622.036 322.447 622.173 322.789 624.252 321.753C626.331 320.717 625.963 319.108 625.963 319.108C624.702 317.278 623.223 315.61 621.557 314.141C619.538 312.549 622.413 312.386 627.418 310.939C625.227 308.157 622.651 305.701 619.768 303.646ZM606.079 351.166C605.359 352.253 604.368 350.952 604.368 350.952C601.451 350.096 601.168 347.725 602.161 346.825C603.153 345.926 603.641 342.861 605.198 344.085C606.453 345.021 607.765 345.879 609.125 346.653C609.125 346.653 610.836 342.235 610.913 346.345C610.99 350.455 613.326 349.204 610.964 350.463C608.603 351.722 606.814 350.052 606.096 351.14L606.079 351.166ZM617.484 352.279C617.498 353.328 617.379 354.376 617.133 355.395L614.943 356.517C613.309 355.156 613.942 353.092 614.832 352.904C615.722 352.716 617.381 351.072 617.51 352.253L617.484 352.279ZM613.47 320.531C614.044 321.652 612.298 322.38 610.364 325.214C608.431 328.048 607.242 325.737 607.242 325.737C607.242 325.737 603.323 322.603 604.598 321.233C605.873 319.863 604.915 318.057 606.797 317.012C607.969 316.361 609.132 316.927 610.219 318.134C611.307 319.341 612.923 319.392 613.488 320.506L613.47 320.531Z" fill="white"/>
<path opacity="0.2" d="M609.63 298.508C610.169 309.81 606.549 322.011 598.61 332.492C589.823 344.094 577.571 351.166 565.361 352.947C555.03 334.945 561.238 311.971 579.226 301.632C588.459 296.325 599.511 295.19 609.63 298.508Z" fill="white"/>
<g opacity="0.3">
<path d="M588.514 395.809H607.285C608.542 395.809 609.561 396.828 609.561 398.086V402.281H586.246V398.086C586.246 396.832 587.26 395.813 588.514 395.809Z" fill="white"/>
</g>
<path d="M578.383 401.048H617.415C618.88 401.048 620.067 402.236 620.067 403.702V408.06H575.73V403.702C575.73 402.237 576.918 401.048 578.383 401.048Z" fill="#263238"/>
<g opacity="0.4">
<path d="M578.383 401.048H617.415C618.88 401.048 620.067 402.236 620.067 403.702V408.06H575.73V403.702C575.73 402.237 576.918 401.048 578.383 401.048Z" fill="white"/>
</g>
<path d="M578.881 155.705C586.361 165.864 584.196 180.167 574.045 187.652C566.208 193.431 555.915 193.435 548.181 188.472L541.576 190.314L542.361 183.105C542.284 183.004 542.197 182.914 542.122 182.812C534.642 172.653 536.807 158.351 546.958 150.864C557.108 143.38 571.401 145.546 578.881 155.705Z" fill="#1EB57D"/>
<path opacity="0.7" d="M578.881 155.705C586.361 165.864 584.196 180.167 574.045 187.652C566.208 193.431 555.915 193.435 548.181 188.472L541.576 190.314L542.361 183.105C542.284 183.004 542.197 182.914 542.122 182.812C534.642 172.653 536.807 158.351 546.958 150.864C557.108 143.38 571.401 145.546 578.881 155.705Z" fill="white"/>
<path d="M580.359 153.481C580.286 153.481 580.214 153.446 580.17 153.381C576.165 147.487 569.062 143.752 561.941 143.752C561.746 143.752 561.551 143.755 561.355 143.76C561.244 143.769 561.123 143.664 561.119 143.537C561.116 143.41 561.216 143.305 561.342 143.301C568.796 143.078 576.348 146.94 580.549 153.122C580.62 153.227 580.593 153.37 580.489 153.44C580.449 153.468 580.404 153.481 580.359 153.481ZM554.703 144.505C555.725 144.111 556.849 143.931 557.938 143.979C558.065 143.992 558.173 143.887 558.178 143.76C558.184 143.633 558.086 143.526 557.96 143.521C556.799 143.467 555.619 143.66 554.537 144.076C554.419 144.122 554.36 144.254 554.406 144.372C554.441 144.463 554.528 144.519 554.62 144.519C554.648 144.52 554.676 144.515 554.703 144.505Z" fill="#1EB57D"/>
<path opacity="0.7" d="M580.359 153.481C580.286 153.481 580.214 153.446 580.17 153.381C576.165 147.487 569.062 143.752 561.941 143.752C561.746 143.752 561.551 143.755 561.355 143.76C561.244 143.769 561.123 143.664 561.119 143.537C561.116 143.41 561.216 143.305 561.342 143.301C568.796 143.078 576.348 146.94 580.549 153.122C580.62 153.227 580.593 153.37 580.489 153.44C580.449 153.468 580.404 153.481 580.359 153.481ZM554.703 144.505C555.725 144.111 556.849 143.931 557.938 143.979C558.065 143.992 558.173 143.887 558.178 143.76C558.184 143.633 558.086 143.526 557.96 143.521C556.799 143.467 555.619 143.66 554.537 144.076C554.419 144.122 554.36 144.254 554.406 144.372C554.441 144.463 554.528 144.519 554.62 144.519C554.648 144.52 554.676 144.515 554.703 144.505Z" fill="white"/>
<path d="M555.343 168.54C555.343 170.233 553.97 171.607 552.278 171.607C550.585 171.607 549.213 170.233 549.213 168.54C549.213 166.846 550.585 165.473 552.278 165.473C553.97 165.473 555.343 166.846 555.343 168.54Z" fill="#1EB57D"/>
<path d="M561.661 171.607C563.354 171.607 564.726 170.234 564.726 168.54C564.726 166.846 563.354 165.473 561.661 165.473C559.969 165.473 558.597 166.846 558.597 168.54C558.597 170.234 559.969 171.607 561.661 171.607Z" fill="#1EB57D"/>
<path d="M571.046 171.607C572.739 171.607 574.111 170.234 574.111 168.54C574.111 166.846 572.739 165.473 571.046 165.473C569.354 165.473 567.981 166.846 567.981 168.54C567.981 170.234 569.354 171.607 571.046 171.607Z" fill="#1EB57D"/>
<path d="M233.432 136.513C226.365 127.538 213.117 125.806 203.842 132.644C196.681 137.923 194.005 146.761 196.398 154.649L193.049 159.859L199.645 160.995C199.715 161.087 199.772 161.184 199.844 161.275C206.911 170.249 220.158 171.982 229.433 165.143C238.708 158.305 240.499 145.487 233.432 136.513Z" fill="#1EB57D"/>
<path opacity="0.7" d="M233.432 136.513C226.365 127.538 213.117 125.806 203.842 132.644C196.681 137.923 194.005 146.761 196.398 154.649L193.049 159.859L199.645 160.995C199.715 161.087 199.772 161.184 199.844 161.275C206.911 170.249 220.158 171.982 229.433 165.143C238.708 158.305 240.499 145.487 233.432 136.513Z" fill="white"/>
<path d="M239.676 154.856C239.652 154.856 239.627 154.852 239.602 154.844C239.482 154.804 239.418 154.673 239.458 154.554C241.541 148.335 240.112 141.056 235.816 136.009C235.735 135.913 235.746 135.768 235.842 135.686C235.937 135.604 236.082 135.615 236.166 135.712C240.564 140.878 242.027 148.332 239.893 154.7C239.862 154.795 239.772 154.856 239.676 154.856ZM237.434 160.355C238.087 159.528 238.566 158.556 238.821 157.546C238.852 157.423 238.777 157.298 238.655 157.267C238.529 157.235 238.407 157.311 238.377 157.434C238.137 158.382 237.687 159.293 237.075 160.07C236.997 160.169 237.013 160.314 237.113 160.392C237.155 160.425 237.205 160.442 237.255 160.442C237.323 160.442 237.39 160.413 237.434 160.355Z" fill="#1EB57D"/>
<path opacity="0.7" d="M239.676 154.856C239.652 154.856 239.627 154.852 239.602 154.844C239.482 154.804 239.418 154.673 239.458 154.554C241.541 148.335 240.112 141.056 235.816 136.009C235.735 135.913 235.746 135.768 235.842 135.686C235.937 135.604 236.082 135.615 236.166 135.712C240.564 140.878 242.027 148.332 239.893 154.7C239.862 154.795 239.772 154.856 239.676 154.856ZM237.434 160.355C238.087 159.528 238.566 158.556 238.821 157.546C238.852 157.423 238.777 157.298 238.655 157.267C238.529 157.235 238.407 157.311 238.377 157.434C238.137 158.382 237.687 159.293 237.075 160.07C236.997 160.169 237.013 160.314 237.113 160.392C237.155 160.425 237.205 160.442 237.255 160.442C237.323 160.442 237.39 160.413 237.434 160.355Z" fill="white"/>
<path d="M221.673 148.442C221.673 149.957 222.942 151.184 224.507 151.184C226.072 151.184 227.342 149.956 227.342 148.442C227.342 146.928 226.073 145.7 224.507 145.7C222.942 145.699 221.673 146.928 221.673 148.442Z" fill="#1EB57D"/>
<path d="M212.995 148.442C212.995 149.957 214.264 151.184 215.83 151.184C217.396 151.184 218.664 149.956 218.664 148.442C218.664 146.928 217.396 145.7 215.83 145.7C214.265 145.699 212.995 146.928 212.995 148.442Z" fill="#1EB57D"/>
<path d="M204.317 148.442C204.317 149.957 205.586 151.184 207.152 151.184C208.717 151.184 209.987 149.956 209.987 148.442C209.987 146.928 208.718 145.7 207.152 145.7C205.586 145.699 204.317 146.928 204.317 148.442Z" fill="#1EB57D"/>
<path d="M390.716 50.1651C374.836 49.9788 361.81 62.7105 361.624 78.602C361.522 87.2257 365.292 95.4409 371.894 100.985C373.109 101.987 374.964 103.2 374.923 105.713C374.922 105.79 375.05 112.003 375.05 112.003H405.296C405.296 112.003 405.425 105.548 405.425 105.475C405.425 103.261 407.138 102.307 408.398 101.31C415.088 95.9421 419.027 87.8591 419.133 79.2786C419.32 63.3861 406.597 50.3515 390.716 50.1651Z" fill="#1EB57D"/>
<path opacity="0.4" d="M390.716 50.1651C374.836 49.9788 361.81 62.7105 361.624 78.602C361.522 87.2257 365.292 95.4409 371.894 100.985C373.109 101.987 374.964 103.2 374.923 105.713C374.922 105.79 375.05 112.003 375.05 112.003H405.296C405.296 112.003 405.425 105.548 405.425 105.475C405.425 103.261 407.138 102.307 408.398 101.31C415.088 95.9421 419.027 87.8591 419.133 79.2786C419.32 63.3861 406.597 50.3515 390.716 50.1651Z" fill="white"/>
<path opacity="0.2" d="M405.011 62.5663C405.011 68.1689 398.458 72.7222 390.334 72.7222C382.209 72.7222 375.656 68.1689 375.656 62.5663C375.656 56.9638 382.209 52.4004 390.334 52.4004C398.459 52.4004 405.011 56.9537 405.011 62.5663Z" fill="white"/>
<path d="M368.269 89.9949C365.727 85.6317 364.733 80.4762 365.469 75.4786C366.206 70.4819 368.646 65.8341 372.34 62.3916L372.652 62.7276C369.034 66.0994 366.644 70.6508 365.922 75.5456C365.201 80.4395 366.174 85.4894 368.664 89.7627L368.269 89.9949Z" fill="white"/>
<path d="M398.739 105.854C397.27 101.984 396.048 98.002 395.082 93.9389C393.6 95.2397 391.974 95.9089 390.402 95.8281C389.134 95.7657 387.865 95.2351 386.559 94.2161C386.363 98.1571 385.708 102.069 384.6 105.844L383.72 105.586C384.875 101.652 385.528 97.5668 385.672 93.457C385.462 93.2596 385.249 93.0494 385.036 92.8263C381.819 89.4728 380.315 85.3207 381.012 81.7176C381.277 80.3507 382.101 79.0177 383.354 79.0177C384.494 79.0462 385.334 80.168 385.719 82.1766C386.407 85.765 386.701 89.4214 386.604 93.0622C387.946 94.2446 389.211 94.8514 390.447 94.9129C392.305 95.0075 393.883 93.8416 394.841 92.9117C394.138 89.8152 393.584 86.6739 393.178 83.5031C393.032 82.3565 392.922 81.2365 393.172 80.1478C393.478 78.813 394.338 77.8087 395.36 77.5902C397.135 77.2047 398.572 79.1013 399.064 81.1695C400.042 85.2822 398.81 89.9713 395.923 93.1155C395.898 93.143 395.872 93.1696 395.848 93.1962C396.825 97.4044 398.078 101.529 399.597 105.53L398.739 105.854ZM383.313 79.9339C382.642 79.9339 382.102 80.9143 381.913 81.8911C381.272 85.2014 382.687 89.0515 385.696 92.1892C385.698 92.191 385.7 92.192 385.701 92.1938C385.734 88.8982 385.441 85.5943 384.817 82.3482C384.71 81.7883 384.285 79.9578 383.33 79.9348C383.325 79.9339 383.319 79.9339 383.313 79.9339ZM395.8 78.4596C395.717 78.4596 395.635 78.4679 395.552 78.4853C394.783 78.6496 394.252 79.541 394.066 80.3507C393.85 81.2925 393.953 82.3235 394.089 83.3847C394.463 86.3158 394.968 89.2222 395.599 92.0901C397.996 89.2075 399.028 84.9746 398.173 81.3797C397.815 79.8807 396.855 78.4596 395.8 78.4596Z" fill="#263238"/>
<path d="M407.287 113.829H373.217C372.405 113.829 371.746 113.17 371.746 112.357V111.649C371.746 110.836 372.405 110.177 373.217 110.177H407.287C408.1 110.177 408.759 110.836 408.759 111.649V112.357C408.759 113.17 408.1 113.829 407.287 113.829Z" fill="#263238"/>
<path opacity="0.3" d="M407.287 113.829H373.217C372.405 113.829 371.746 113.17 371.746 112.357V111.649C371.746 110.836 372.405 110.177 373.217 110.177H407.287C408.1 110.177 408.759 110.836 408.759 111.649V112.357C408.759 113.17 408.1 113.829 407.287 113.829Z" fill="white"/>
<path d="M406.687 117.035H373.817C373.004 117.035 372.346 116.376 372.346 115.563V114.972C372.346 114.159 373.004 113.5 373.817 113.5H406.687C407.5 113.5 408.158 114.159 408.158 114.972V115.562C408.158 116.376 407.5 117.035 406.687 117.035Z" fill="#263238"/>
<path opacity="0.3" d="M406.687 117.035H373.817C373.004 117.035 372.346 116.376 372.346 115.563V114.972C372.346 114.159 373.004 113.5 373.817 113.5H406.687C407.5 113.5 408.158 114.159 408.158 114.972V115.562C408.158 116.376 407.5 117.035 406.687 117.035Z" fill="white"/>
<path d="M378.894 122.076C381.163 126.229 385.936 130.604 390.657 130.325C395.379 130.046 399.808 126.031 401.574 121.641L378.894 122.076Z" fill="#263238"/>
<path d="M404.502 123.408H376.005C375.192 123.408 374.533 122.749 374.533 121.936V121.346C374.533 120.532 375.192 119.873 376.005 119.873H404.502C405.314 119.873 405.973 120.532 405.973 121.346V121.936C405.973 122.749 405.314 123.408 404.502 123.408Z" fill="#263238"/>
<path opacity="0.3" d="M404.502 123.408H376.005C375.192 123.408 374.533 122.749 374.533 121.936V121.346C374.533 120.532 375.192 119.873 376.005 119.873H404.502C405.314 119.873 405.973 120.532 405.973 121.346V121.936C405.973 122.749 405.314 123.408 404.502 123.408Z" fill="white"/>
<path d="M406.204 120.166H374.301C373.489 120.166 372.83 119.507 372.83 118.694V118.103C372.83 117.29 373.489 116.631 374.301 116.631H406.204C407.016 116.631 407.675 117.29 407.675 118.103V118.694C407.675 119.507 407.016 120.166 406.204 120.166Z" fill="#263238"/>
<path opacity="0.3" d="M406.204 120.166H374.301C373.489 120.166 372.83 119.507 372.83 118.694V118.103C372.83 117.29 373.489 116.631 374.301 116.631H406.204C407.016 116.631 407.675 117.29 407.675 118.103V118.694C407.675 119.507 407.016 120.166 406.204 120.166Z" fill="white"/>
<path d="M374.423 39.7296C376.609 41.9172 378.794 44.1038 380.98 46.2914C381.293 46.6054 381.78 46.1179 381.466 45.8049C379.28 43.6173 377.095 41.4306 374.909 39.243C374.596 38.9291 374.109 39.4156 374.423 39.7296Z" fill="#263238"/>
<path d="M391.517 43.7115C391.517 39.5732 391.517 35.4357 391.517 31.2974C391.517 30.854 390.829 30.854 390.829 31.2974C390.829 35.4357 390.829 39.5732 390.829 43.7115C390.829 44.154 391.517 44.1549 391.517 43.7115Z" fill="#263238"/>
<path d="M400.612 46.8239C402.975 44.4591 405.338 42.0943 407.701 39.7296C408.015 39.4156 407.528 38.9291 407.215 39.243C404.852 41.6078 402.489 43.9726 400.126 46.3373C399.812 46.6504 400.298 47.1369 400.612 46.8239Z" fill="#263238"/>
<path d="M543.439 365.662H144.412V408.408H543.439V365.662Z" fill="#127852"/>
<path d="M281.509 370.132H144.412V403.939H281.509V370.132Z" fill="white"/>
<path d="M144.412 378.463C186.11 378.015 232.891 378.011 274.589 378.463C232.891 378.915 186.11 378.911 144.412 378.463Z" fill="#263238"/>
<path d="M144.412 382.473C186.11 382.025 232.891 382.021 274.589 382.473C232.891 382.924 186.11 382.921 144.412 382.473Z" fill="#263238"/>
<path d="M144.412 386.481C186.11 386.033 232.891 386.03 274.589 386.481C232.891 386.933 186.11 386.929 144.412 386.481Z" fill="#263238"/>
<path d="M144.412 390.492C186.11 390.044 232.891 390.04 274.589 390.492C232.891 390.943 186.11 390.94 144.412 390.492Z" fill="#263238"/>
<path d="M144.412 394.501C186.11 394.053 232.891 394.05 274.589 394.501C232.891 394.953 186.11 394.949 144.412 394.501Z" fill="#263238"/>
<path d="M144.412 398.51C186.11 398.062 232.891 398.059 274.589 398.51C232.891 398.962 186.11 398.958 144.412 398.51Z" fill="#263238"/>
<path d="M144.412 374.453C186.11 374.005 232.891 374.001 274.589 374.453C232.891 374.905 186.11 374.901 144.412 374.453Z" fill="#263238"/>
<path opacity="0.3" d="M328.781 365.662H316.542V408.408H328.781V365.662Z" fill="white"/>
<path opacity="0.3" d="M515.434 365.662H503.195V408.408H515.434V365.662Z" fill="white"/>
<path opacity="0.2" d="M289.277 365.662H144.412V408.408H289.277V365.662Z" fill="black"/>
<path d="M436.507 275.435H204.645V305.889H436.507V275.435Z" fill="#1EB57D"/>
<path d="M302.316 278.621H204.645V302.705H302.316V278.621Z" fill="white"/>
<path d="M204.645 284.556C234.35 284.108 267.681 284.104 297.386 284.556C267.68 285.007 234.35 285.004 204.645 284.556Z" fill="#263238"/>
<path d="M204.645 287.413C234.35 286.965 267.681 286.961 297.386 287.413C267.68 287.864 234.35 287.861 204.645 287.413Z" fill="#263238"/>
<path d="M204.645 290.268C234.35 289.82 267.681 289.816 297.386 290.268C267.68 290.721 234.35 290.716 204.645 290.268Z" fill="#263238"/>
<path d="M204.645 293.125C234.35 292.677 267.681 292.673 297.386 293.125C267.68 293.577 234.35 293.573 204.645 293.125Z" fill="#263238"/>
<path d="M204.645 295.982C234.35 295.534 267.681 295.53 297.386 295.982C267.68 296.434 234.35 296.429 204.645 295.982Z" fill="#263238"/>
<path d="M204.645 298.838C234.35 298.39 267.681 298.386 297.386 298.838C267.68 299.29 234.35 299.286 204.645 298.838Z" fill="#263238"/>
<path d="M204.645 281.699C234.35 281.251 267.681 281.247 297.386 281.699C267.68 282.151 234.35 282.147 204.645 281.699Z" fill="#263238"/>
<path opacity="0.3" d="M427.085 275.435H418.366V305.889H427.085V275.435Z" fill="black"/>
<path opacity="0.3" d="M334.358 275.435H325.639V305.889H334.358V275.435Z" fill="black"/>
<path opacity="0.2" d="M307.85 275.435H204.645V305.889H307.85V275.435Z" fill="black"/>
<path opacity="0.3" d="M409.563 286.188H342.107V295.103H409.563V286.188Z" fill="black"/>
<path d="M445.515 347.745H120.06V365.662H445.515V347.745Z" fill="#263238"/>
<path d="M256.803 350.06H120.06V363.348H256.803V350.06Z" fill="white"/>
<path d="M120.998 352.694C162.696 352.246 209.477 352.242 251.175 352.694C209.477 353.145 162.696 353.141 120.998 352.694Z" fill="#263238"/>
<path d="M120.998 356.703C162.696 356.255 209.477 356.251 251.175 356.703C209.477 357.154 162.696 357.151 120.998 356.703Z" fill="#263238"/>
<path d="M120.998 360.712C162.696 360.264 209.477 360.261 251.175 360.712C209.477 361.164 162.696 361.16 120.998 360.712Z" fill="#263238"/>
<path opacity="0.3" d="M295.659 347.745H292.223V365.662H295.659V347.745Z" fill="white"/>
<path opacity="0.3" d="M302.062 347.745H298.626V365.662H302.062V347.745Z" fill="white"/>
<path opacity="0.3" d="M423.607 347.745H420.171V365.662H423.607V347.745Z" fill="white"/>
<path opacity="0.3" d="M430.011 347.745H426.574V365.662H430.011V347.745Z" fill="white"/>
<path opacity="0.2" d="M260.134 347.737H120.046V365.653H260.134V347.737Z" fill="black"/>
<path d="M508.693 305.73H183.237V323.647H508.693V305.73Z" fill="#263238"/>
<path d="M319.98 308.044H183.237V321.332H319.98V308.044Z" fill="white"/>
<path d="M184.176 310.679C225.874 310.231 272.654 310.227 314.353 310.679C272.654 311.13 225.874 311.127 184.176 310.679Z" fill="#263238"/>
<path d="M184.176 314.688C225.874 314.24 272.654 314.237 314.353 314.688C272.654 315.14 225.874 315.136 184.176 314.688Z" fill="#263238"/>
<path d="M184.176 318.697C225.874 318.249 272.654 318.246 314.353 318.697C272.654 319.15 225.874 319.145 184.176 318.697Z" fill="#263238"/>
<path opacity="0.3" d="M358.837 305.73H355.4V323.647H358.837V305.73Z" fill="white"/>
<path opacity="0.3" d="M365.239 305.73H361.803V323.647H365.239V305.73Z" fill="white"/>
<path opacity="0.3" d="M486.785 305.73H483.349V323.647H486.785V305.73Z" fill="white"/>
<path opacity="0.3" d="M493.187 305.73H489.751V323.647H493.187V305.73Z" fill="white"/>
<path opacity="0.2" d="M323.311 305.722H183.224V323.638H323.311V305.722Z" fill="black"/>
<path d="M133.504 347.92L458.959 347.92V323.473L133.504 323.473V347.92Z" fill="#1EB57D"/>
<path opacity="0.4" d="M133.504 347.92L458.959 347.92V323.473L133.504 323.473V347.92Z" fill="white"/>
<path d="M322.215 345.606H458.958V326.286H322.215V345.606Z" fill="white"/>
<path d="M458.021 334.953C416.322 335.401 369.542 335.404 327.844 334.953C369.541 334.501 416.322 334.505 458.021 334.953Z" fill="#263238"/>
<path d="M458.021 338.962C416.322 339.41 369.542 339.414 327.844 338.962C369.541 338.511 416.322 338.514 458.021 338.962Z" fill="#263238"/>
<path d="M458.021 342.972C416.322 343.42 369.542 343.424 327.844 342.972C369.541 342.52 416.322 342.524 458.021 342.972Z" fill="#263238"/>
<path d="M458.021 330.797C416.322 331.245 369.542 331.248 327.844 330.797C369.541 330.345 416.322 330.349 458.021 330.797Z" fill="#263238"/>
<path opacity="0.2" d="M318.885 347.91H458.973V323.462H318.885V347.91Z" fill="black"/>
<path opacity="0.4" d="M290.997 330.797H162.599V338.962H290.997V330.797Z" fill="white"/>
<path d="M511.716 324.276C511.716 324.276 416.204 304.836 412.275 324.74C406.667 353.153 475.665 370.12 512.084 367.882C548.503 365.645 511.716 324.276 511.716 324.276Z" fill="#263238"/>
<path opacity="0.2" d="M511.716 324.276C511.716 324.276 416.204 304.836 412.275 324.74C406.667 353.153 475.665 370.12 512.084 367.882C548.503 365.645 511.716 324.276 511.716 324.276Z" fill="black"/>
<path opacity="0.2" d="M443.579 329.923L488.96 356.94L483.264 365.57C483.264 365.57 486.532 370.121 492.074 355.68L463.976 338.262C463.976 338.262 472.577 337.141 472.32 335.797C471.888 333.591 452.813 329.934 444.115 328.29C443.664 328.142 443.179 328.388 443.03 328.839C442.883 329.29 443.128 329.775 443.579 329.923Z" fill="black"/>
<path opacity="0.2" d="M490.482 353.699L483.124 366.458C492.703 367.842 502.403 368.319 512.084 367.882C515.268 367.769 518.405 367.104 521.344 365.92L523.911 360.872L517.719 349.277L490.482 353.699Z" fill="black"/>
<path d="M475.587 349.151L495.771 361.142L492.503 370.87L468.933 361.095L475.587 349.151Z" fill="#EBB373"/>
<path d="M506.772 364.043L505.031 371.022C505.031 371.022 503.579 371.373 503.168 372.842C502.936 373.668 503.604 375.906 503.604 375.906L498.959 395.132C498.93 395.126 497.642 394.817 497.123 394.466C496.491 394.037 495.977 393.594 495.56 393.142C494.105 391.556 493.88 389.204 493.777 387.459C493.603 384.535 491.671 376.035 491.671 376.035C491.671 376.035 490.963 373.826 488.556 371.934C487.213 370.879 486.567 369.515 486.664 368.657C486.859 366.905 488.092 366.213 489.728 366.362L491.628 366.537C492.951 365.488 493.315 363.771 492.411 362.153C492.411 362.153 491.169 358.031 492.93 358.678C493.936 359.048 498.367 360.872 501.911 362.208C502.736 362.52 503.519 362.814 504.204 363.072V363.074C505.727 363.647 506.772 364.043 506.772 364.043Z" fill="#263238"/>
<path d="M492.535 380.574C492.479 380.468 492.503 380.333 492.591 380.249C492.989 379.86 493.485 379.575 494.053 379.439C494.352 379.367 494.503 379.847 494.201 379.919C493.697 380.04 493.259 380.289 492.911 380.628C492.794 380.741 492.614 380.72 492.538 380.578C492.537 380.576 492.535 380.574 492.535 380.574Z" fill="#B8D7CB"/>
<path d="M492.097 378.896C492.04 378.791 492.065 378.656 492.152 378.571C492.55 378.183 493.046 377.898 493.614 377.762C493.913 377.69 494.065 378.169 493.763 378.242C493.258 378.363 492.821 378.612 492.472 378.95C492.356 379.063 492.176 379.042 492.101 378.901C492.099 378.9 492.097 378.898 492.097 378.896Z" fill="#B8D7CB"/>
<path d="M491.723 377.187C491.666 377.081 491.691 376.946 491.778 376.862C492.176 376.474 492.672 376.188 493.24 376.052C493.539 375.981 493.691 376.461 493.389 376.532C492.884 376.653 492.447 376.902 492.098 377.241C491.982 377.354 491.802 377.333 491.726 377.191C491.725 377.19 491.724 377.189 491.723 377.187Z" fill="#B8D7CB"/>
<path opacity="0.2" d="M504.204 363.073V363.075C505.725 363.648 506.771 364.043 506.771 364.043L505.03 371.022C505.03 371.022 503.579 371.373 503.167 372.842C502.936 373.668 503.604 375.906 503.604 375.906L498.958 395.132C498.93 395.125 497.641 394.817 497.123 394.466C496.833 394.268 496.573 394.068 496.331 393.866L503.822 362.929C503.947 362.976 504.084 363.027 504.204 363.073Z" fill="white"/>
<path d="M489.032 378.641C488.542 378.641 488.08 378.511 487.709 378.262C487.414 378.065 487.123 377.711 487.195 377.315C487.263 376.927 487.63 376.707 487.925 376.589C488.523 376.35 489.228 376.291 490.016 376.408C490.705 376.511 491.375 376.735 492.022 376.953L492.227 377.022L492.059 377.155C491.675 377.448 490.366 378.418 489.663 378.572C489.45 378.618 489.238 378.641 489.032 378.641ZM489.261 376.578C488.802 376.578 488.383 376.653 488.008 376.802C487.811 376.88 487.473 377.057 487.419 377.356C487.368 377.644 487.601 377.914 487.836 378.072C488.313 378.392 488.963 378.491 489.612 378.347C490.191 378.22 491.279 377.448 491.744 377.102C491.169 376.911 490.579 376.724 489.98 376.634C489.731 376.597 489.491 376.578 489.261 376.578Z" fill="#B8D7CB"/>
<path d="M492.113 377.204L491.938 377.074L492.007 376.982L491.936 377.073C491.389 376.664 490.824 376.241 490.347 375.732C489.8 375.149 489.449 374.535 489.304 373.907C489.233 373.597 489.207 373.17 489.485 372.894C489.772 372.611 490.226 372.647 490.557 372.778C491.148 373.01 491.647 373.532 491.923 374.209C492.194 374.876 492.144 376.504 492.122 376.988L492.113 377.204ZM490.06 372.908C489.905 372.908 489.756 372.949 489.648 373.056C489.433 373.269 489.481 373.648 489.528 373.855C489.663 374.444 489.996 375.023 490.514 375.574C490.928 376.016 491.417 376.396 491.903 376.759C491.934 375.83 491.899 374.753 491.712 374.295C491.459 373.675 491.006 373.2 490.473 372.99C490.348 372.942 490.201 372.908 490.06 372.908Z" fill="#B8D7CB"/>
<path d="M470.746 265.036C470.746 265.036 468.192 296.001 467.315 297.684C464.349 303.375 443.892 313.588 443.892 313.588L433.252 311.683L425.861 318.239L430.973 322.009L436.769 319.619C439.986 320.096 443.237 320.285 446.487 320.183C451.948 320.021 479.169 313.209 483.348 305.73C487.527 298.251 487.468 263.515 487.468 263.515L470.746 265.036Z" fill="#EBB373"/>
<path d="M488.306 276.66C488.306 276.66 495.634 249.316 485.287 242.09C474.941 234.865 467.986 272.367 467.986 272.367L488.306 276.66Z" fill="#B8D7CB"/>
<path opacity="0.5" d="M488.306 276.66C488.306 276.66 495.634 249.316 485.287 242.09C474.941 234.865 467.986 272.367 467.986 272.367L488.306 276.66Z" fill="white"/>
<path d="M483.354 326.425L482.374 290.499L481.696 241.287L502.771 236.058L517.531 235.918L542.493 243.697L543.339 255.752C543.339 255.752 542.57 311.245 542.754 312.912C542.98 314.955 549.316 327.634 549.316 327.634C522.959 334.468 482.991 328.269 483.354 326.425Z" fill="#B8D7CB"/>
<path opacity="0.2" d="M482.227 275.376L481.871 253.945L478.104 274.504L482.227 275.376Z" fill="black"/>
<path opacity="0.2" d="M527.229 277.425C526.572 277.317 523.892 276.525 523.892 276.525L529.982 255.644L520.556 278.586L526.694 280.824L527.229 277.425Z" fill="black"/>
<path d="M529.572 260.366C529.572 260.366 525.435 294.782 522.558 298.072C517.695 303.632 493.239 318.728 493.239 318.728L480.693 314.738C479.814 314.477 478.857 314.662 478.161 315.226L469.862 321.961L470.693 322.621C471.052 322.907 471.561 322.951 471.968 322.733L473.267 322.037L471.835 323.528L472.313 323.908C472.79 324.287 473.439 324.409 474.031 324.231L477.797 323.101L474.363 325.538C475.164 326.175 476.26 326.371 477.251 326.057L482.758 324.31C486.572 325.065 490.446 325.505 494.339 325.622C500.89 325.832 531.455 314.122 536.978 306.047C542.501 297.971 547.47 264.967 547.47 264.967L529.572 260.366Z" fill="#EBB373"/>
<path d="M546.676 282.675C546.676 282.675 553.457 251.395 543.111 244.169C532.764 236.943 523.893 276.525 523.893 276.525L546.676 282.675Z" fill="#B8D7CB"/>
<path opacity="0.5" d="M546.676 282.675C546.676 282.675 553.457 251.395 543.111 244.169C532.764 236.943 523.893 276.525 523.893 276.525L546.676 282.675Z" fill="white"/>
<path d="M464.963 324.591L484.062 324.027L504.328 323.43C504.328 323.434 504.328 323.439 504.328 323.443C504.363 324.947 502.72 326.21 500.659 326.264L480.411 326.861L468.828 327.203C468.81 327.204 468.792 327.204 468.774 327.205H468.772L436.537 328.156C434.492 328.201 432.812 327.033 432.778 325.54L464.963 324.591Z" fill="#263238"/>
<path d="M435.942 328.02L471.905 326.959C472.525 326.936 473.012 326.514 472.993 326.016C472.989 325.922 472.967 325.83 472.928 325.742L455.849 289.511C455.414 288.474 454.188 287.793 452.821 287.829L416.837 288.89C416.229 288.909 415.747 289.319 415.762 289.808C415.765 289.911 415.79 290.011 415.836 290.107L432.915 326.338C433.357 327.371 434.578 328.049 435.942 328.02Z" fill="#263238"/>
<path opacity="0.7" d="M416.837 288.89L452.821 287.829C454.188 287.793 455.414 288.474 455.849 289.511L472.284 324.376L484.063 324.028L504.33 323.431C504.33 323.435 504.33 323.439 504.33 323.444C504.365 324.948 502.722 326.211 500.66 326.265L480.412 326.862L468.829 327.204C468.811 327.205 468.793 327.205 468.776 327.206H468.773L436.538 328.157C435.889 328.171 435.287 328.053 434.753 327.851C433.908 327.594 433.223 327.054 432.916 326.338L415.836 290.107C415.79 290.011 415.765 289.91 415.762 289.808C415.747 289.319 416.229 288.909 416.837 288.89Z" fill="white"/>
<path d="M439.024 307.792C439.853 309.531 441.464 310.694 442.631 310.413C443.798 310.132 444.064 308.518 443.258 306.774C442.451 305.03 440.823 303.896 439.656 304.176C438.489 304.456 438.184 306.008 439.024 307.792Z" fill="white"/>
<g opacity="0.3">
<path d="M455.849 289.51L472.283 324.375L470.617 324.424L452.821 287.828C454.188 287.793 455.413 288.473 455.849 289.51Z" fill="black"/>
</g>
<path d="M518.158 238.524C518.158 238.524 514.342 230.965 516.814 218.443C515.3 217.735 517.302 214.601 517.239 213.349L501.448 225.132C502.181 229.003 501.439 236.671 500.881 239.931L506.97 245.468L518.158 238.524Z" fill="#EBB373"/>
<path opacity="0.2" d="M501.86 227.45L511.017 226.72C509.474 229.438 508.388 231.825 501.685 232.099C501.685 232.099 501.627 228.746 501.86 227.45Z" fill="black"/>
<path d="M495.553 190.153C492.739 193.472 491.516 203.055 497.933 202.751C504.351 202.446 500.389 184.447 495.553 190.153Z" fill="#263238"/>
<path d="M521.963 207.983C518.412 218.066 516.613 223.824 509.938 227.565C481.993 238.913 485.035 191.021 506.643 188.278C517.669 187.173 525.513 197.9 521.963 207.983Z" fill="#EBB373"/>
<path d="M530.238 195.198C528.79 185.365 512.83 185.86 508.052 187.622C507.338 187.886 514.526 194.493 514.07 194.163L517.632 196.655C522.648 199.198 513.597 207.293 517.911 216.075C527.459 214.839 530.973 202.371 530.238 195.198Z" fill="#263238"/>
<path d="M523.578 217.692C520.817 222.844 510.8 224.205 513.402 216.253C515.448 208.43 527.585 208.482 523.578 217.692Z" fill="#EBB373"/>
<path d="M506.673 206.803C505.986 209.289 503.466 208.518 504.193 206.069C504.88 203.583 507.4 204.353 506.673 206.803Z" fill="#263238"/>
<path d="M496.025 204.023C495.338 206.509 492.817 205.739 493.545 203.29C494.232 200.804 496.752 201.575 496.025 204.023Z" fill="#263238"/>
<path d="M499.605 204.407C499.605 204.407 494.798 208.678 493.129 210.5C494.214 212.236 496.903 212.345 496.903 212.345L499.605 204.407Z" fill="#E4873E"/>
<path d="M510.416 202.544C510.239 202.563 510.056 202.49 509.942 202.334C508.593 200.486 506.713 200.55 506.694 200.551C504.655 199.201 508.897 198.911 510.765 201.738C511 202.042 510.793 202.512 510.416 202.544Z" fill="#263238"/>
<path opacity="0.2" d="M516.486 216.157C516.463 216.157 516.439 216.153 516.416 216.145C516.296 216.107 516.229 215.977 516.268 215.857C516.752 214.334 518.552 212.848 520.044 212.738C520.737 212.688 521.66 212.882 522.249 214.086C522.304 214.2 522.258 214.338 522.144 214.394C522.03 214.449 521.893 214.403 521.837 214.288C521.454 213.505 520.86 213.138 520.077 213.196C518.771 213.292 517.132 214.653 516.704 215.997C516.673 216.094 516.584 216.157 516.486 216.157Z" fill="black"/>
<path d="M492.811 198.307C492.46 198.132 492.449 197.582 492.804 197.403C495.275 196.05 497.34 197.17 497.438 197.208C498.018 197.512 497.542 198.432 496.96 198.112C496.69 197.675 494.699 197.714 492.811 198.307Z" fill="#263238"/>
<path d="M526.118 210.929C526.118 210.929 519.035 200.806 510.389 196.088C500.815 190.863 493.8 192.418 493.8 192.418C493.8 192.418 492.16 190.81 493.215 189.899C494.27 188.988 495.253 189.786 495.253 189.786C495.253 189.786 505.523 178.835 517.785 182.336C530.048 185.837 534.13 193.415 533.634 193.966C531.112 196.765 529.664 192.422 529.664 192.422C529.664 192.422 532.645 196.401 529.209 204.53L528.192 207.712C528.192 207.711 529.032 211.424 526.118 210.929Z" fill="#263238"/>
<path opacity="0.7" d="M526.118 210.929C526.118 210.929 519.035 200.806 510.389 196.088C500.815 190.863 493.8 192.418 493.8 192.418C493.8 192.418 492.16 190.81 493.215 189.899C494.27 188.988 495.253 189.786 495.253 189.786C495.253 189.786 505.523 178.835 517.785 182.336C530.048 185.837 534.13 193.415 533.634 193.966C531.112 196.765 529.664 192.422 529.664 192.422C529.664 192.422 532.645 196.401 529.209 204.53L528.192 207.712C528.192 207.711 529.032 211.424 526.118 210.929Z" fill="white"/>
<path d="M510.184 195.633C508.874 195.188 507.905 193.878 507.864 192.493C507.837 191.583 508.17 190.708 508.402 189.827C508.634 188.947 508.759 187.969 508.343 187.159C507.988 186.467 507.243 185.993 506.466 185.966C505.689 185.939 504.912 186.36 504.509 187.025C504.8 186.478 504.599 185.773 504.192 185.305C503.786 184.838 503.213 184.554 502.656 184.282C501.652 183.794 500.528 183.293 499.459 183.613C498.389 183.934 497.712 184.992 497.339 186.045C496.857 187.404 496.73 188.926 497.219 190.282C497.873 192.095 499.55 193.387 501.361 194.046C503.171 194.705 505.126 194.822 507.049 194.932" fill="#263238"/>
<path opacity="0.2" d="M530.056 193.13C530.056 193.13 528.659 188.475 522.911 186.142L530.056 193.13Z" fill="black"/>
<path opacity="0.3" d="M527.511 207.514C524.053 200.72 516.82 193.862 509.515 190.45L509.612 190.242C516.961 193.673 524.236 200.573 527.715 207.409L527.511 207.514Z" fill="black"/>
<path d="M497.718 216.167C498.469 217.493 499.124 218.872 499.676 220.292C499.937 220.237 500.206 220.187 500.463 220.119C504.022 219.322 505.415 217.781 505.862 216.304C506.068 215.578 506.101 214.813 505.957 214.072C505.887 213.652 505.757 213.245 505.575 212.86C503.939 214.412 500.689 215.41 498.924 215.869C498.155 216.032 497.718 216.167 497.718 216.167Z" fill="#263238"/>
<path d="M498.888 215.844L499.5 217.047C502.841 216.289 505.092 215.317 505.921 214.047C505.85 213.627 505.721 213.22 505.538 212.835C503.893 214.402 500.653 215.385 498.888 215.844Z" fill="white"/>
<path d="M500.426 220.094C503.984 219.297 505.378 217.756 505.824 216.278C504.478 216.606 503.2 217.169 502.049 217.943C501.298 218.473 500.73 219.225 500.426 220.094Z" fill="#C15854"/>
<path d="M456.231 365.594L433.177 370.008L429.179 360.558L453.301 352.239L456.231 365.594Z" fill="#EBB373"/>
<path d="M423.019 375.135L419.699 368.756C419.699 368.756 420.553 367.531 419.888 366.157C419.514 365.385 417.531 364.153 417.531 364.153L408.271 346.677C408.297 346.664 409.466 346.038 410.087 345.959C410.844 345.86 411.523 345.85 412.134 345.913C414.274 346.134 416.001 347.747 417.234 348.984C419.302 351.058 426.379 356.139 426.379 356.139C426.379 356.139 428.371 357.323 431.427 357.143C433.131 357.042 434.519 357.634 435.015 358.341C436.029 359.782 435.564 361.118 434.241 362.091L432.703 363.221C432.407 364.884 433.272 366.412 435.021 367.023C435.021 367.023 438.682 369.285 436.934 369.968C435.936 370.358 431.409 371.932 427.872 373.284C427.047 373.598 426.268 373.897 425.582 374.159L425.581 374.157C424.063 374.738 423.019 375.135 423.019 375.135Z" fill="#263238"/>
<path d="M422.725 353.315C422.837 353.356 422.909 353.473 422.9 353.595C422.858 354.149 422.676 354.693 422.342 355.171C422.166 355.423 421.734 355.164 421.913 354.91C422.21 354.485 422.373 354.008 422.41 353.523C422.422 353.361 422.57 353.258 422.722 353.314C422.722 353.314 422.724 353.315 422.725 353.315Z" fill="#B8D7CB"/>
<path d="M424.166 354.278C424.277 354.32 424.349 354.437 424.34 354.558C424.299 355.112 424.116 355.655 423.782 356.134C423.606 356.386 423.175 356.127 423.353 355.873C423.65 355.448 423.813 354.971 423.85 354.486C423.862 354.323 424.011 354.221 424.162 354.277C424.162 354.277 424.164 354.278 424.166 354.278Z" fill="#B8D7CB"/>
<path d="M425.578 355.31C425.691 355.352 425.761 355.469 425.752 355.589C425.712 356.144 425.528 356.687 425.194 357.165C425.018 357.418 424.586 357.159 424.765 356.905C425.062 356.48 425.226 356.003 425.262 355.518C425.274 355.355 425.423 355.252 425.574 355.308C425.574 355.308 425.576 355.31 425.578 355.31Z" fill="#B8D7CB"/>
<path opacity="0.2" d="M419.888 366.156C419.514 365.384 417.531 364.152 417.531 364.152L408.271 346.676C408.297 346.663 409.466 346.037 410.087 345.958C410.435 345.913 410.761 345.891 411.078 345.881L425.965 374.013C425.84 374.06 425.704 374.113 425.583 374.158L425.582 374.158C424.063 374.739 423.019 375.135 423.019 375.135L419.699 368.756C419.699 368.756 420.553 367.53 419.888 366.156Z" fill="white"/>
<path d="M425.311 355.768L425.348 355.558C425.443 355.083 425.781 353.489 426.204 352.908C426.633 352.315 427.241 351.927 427.871 351.843C428.22 351.796 428.673 351.868 428.884 352.21C429.044 352.471 429.02 352.837 428.818 353.238C428.528 353.816 428.041 354.329 427.374 354.761C426.787 355.142 426.138 355.418 425.511 355.684L425.311 355.768ZM428.07 352.059C428.012 352.059 427.955 352.063 427.9 352.071C427.332 352.147 426.78 352.501 426.388 353.043C426.098 353.443 425.807 354.48 425.616 355.39C426.172 355.152 426.739 354.901 427.246 354.57C427.879 354.159 428.339 353.675 428.612 353.135C428.708 352.945 428.845 352.587 428.686 352.33C428.564 352.129 428.311 352.059 428.07 352.059Z" fill="#B8D7CB"/>
<path d="M428.617 357.968C428.215 357.968 427.796 357.869 427.4 357.673C426.759 357.357 425.716 356.103 425.411 355.725L425.275 355.557L425.49 355.538L425.5 355.653L425.501 355.538C426.178 355.48 426.877 355.42 427.572 355.487C428.366 355.559 429.036 355.786 429.56 356.161C429.925 356.421 430.117 356.733 430.097 357.04C430.071 357.442 429.705 357.715 429.371 357.837C429.136 357.926 428.88 357.968 428.617 357.968ZM425.728 355.749C426.32 356.466 427.06 357.249 427.503 357.467C428.103 357.763 428.755 357.818 429.293 357.623C429.559 357.524 429.85 357.318 429.868 357.027C429.889 356.724 429.602 356.473 429.429 356.349C428.936 355.998 428.305 355.785 427.552 355.716C426.949 355.66 426.332 355.7 425.728 355.749Z" fill="#B8D7CB"/>
<path d="M542.964 352.456C547.726 344.347 558.382 322.436 535.343 318.91C512.304 315.383 436.818 354.05 436.818 354.05L442.1 368.528L513.027 355.185C513.027 355.185 503.66 368.499 515.468 367.556C532.621 365.345 536.63 361.104 542.964 352.456Z" fill="#263238"/>
<path opacity="0.2" d="M511.348 355.627L530.716 348.895C530.716 348.895 514.611 359.42 508.631 360.79L511.348 355.627Z" fill="black"/>
<path d="M370.137 161.581L377.071 153.552L384.137 156.052L379.317 165.447L370.137 161.581Z" fill="#EEC1BB"/>
<path d="M376.019 152.887C376.019 152.887 375.415 149.251 377.216 146.793C379.017 144.334 379.8 141.891 381.265 140.156C382.73 138.421 382.763 141.487 382.451 143.121C382.14 144.756 381.803 146.612 383.067 146.648C384.332 146.683 393.92 141.537 395.667 141.787C397.415 142.035 396.124 143.354 396.124 143.354C396.124 143.354 398.486 142.167 399.212 142.976C399.4 143.186 399.497 143.979 398.506 144.689C396.274 146.287 391.419 149.396 391.419 149.396C391.694 149.211 397.962 145.801 398.966 145.413C400.28 144.905 401.158 145.337 401.427 146.109C401.81 147.207 394.184 151.701 393.995 152.115C393.995 152.115 398.299 149.381 399.613 150.107C400.926 150.832 398.31 152.701 395.691 153.911C393.291 155.02 388.871 157.823 386.321 158.714C383.179 159.811 380.822 159.841 378.668 157.582C376.514 155.324 376.019 152.887 376.019 152.887Z" fill="#EEC1BB"/>
<path opacity="0.3" d="M390.377 146.864C390.339 146.864 390.304 146.845 390.282 146.812C390.247 146.759 390.261 146.688 390.315 146.653C392.083 145.49 393.925 144.396 395.788 143.4C395.844 143.371 395.914 143.392 395.943 143.447C395.973 143.503 395.953 143.573 395.896 143.602C394.039 144.594 392.203 145.685 390.44 146.844C390.42 146.858 390.398 146.864 390.377 146.864Z" fill="black"/>
<path opacity="0.3" d="M392.416 153.402C392.364 153.402 392.317 153.366 392.304 153.313C391.703 150.675 390.29 148.197 388.328 146.333C388.282 146.289 388.28 146.216 388.323 146.17C388.367 146.125 388.44 146.123 388.485 146.166C390.48 148.061 391.915 150.581 392.528 153.261C392.543 153.323 392.503 153.384 392.442 153.399C392.434 153.401 392.425 153.402 392.416 153.402Z" fill="black"/>
<path opacity="0.3" d="M380.813 153.968C380.773 153.968 380.735 153.947 380.714 153.911C380.682 153.856 380.7 153.786 380.756 153.754C381.691 153.208 382.438 152.313 382.81 151.295C383.181 150.279 383.187 149.111 382.824 148.091C382.804 148.031 382.835 147.965 382.894 147.944C382.954 147.924 383.02 147.954 383.041 148.014C383.421 149.083 383.414 150.308 383.025 151.374C382.636 152.441 381.851 153.38 380.87 153.952C380.852 153.962 380.832 153.968 380.813 153.968Z" fill="black"/>
<path d="M400.372 292.114L403.959 281.37L378.008 266.882L372.368 283.186L400.372 292.114Z" fill="#EEC1BB"/>
<path d="M400.759 277.619L398.854 281.164C398.423 281.967 398.431 282.927 398.822 283.748C400.515 287.294 398.634 288.263 394.816 289.076C393.893 290.402 395.309 291.654 395.683 292.004L403.894 299.837C404.575 300.5 405.665 300.485 406.327 299.804C406.444 299.683 406.544 299.545 406.621 299.395C408.934 295.088 410.028 293.051 412.906 287.692L421.709 271.302C424.109 266.834 420.106 263.488 418.702 265.105C412.43 272.398 406.848 276.95 403.069 278.214C402.393 278.462 402.34 277.804 400.759 277.619Z" fill="#263238"/>
<path d="M407.63 271.398C407.562 270.88 407.253 270.426 406.797 270.174C406.568 270.01 406.264 269.992 406.018 270.127C404.634 270.816 404.324 276.362 404.299 276.99C404.289 277.056 404.31 277.123 404.354 277.173C404.437 277.265 404.578 277.272 404.67 277.189C405.513 276.238 406.254 275.202 406.882 274.098C407.412 273.301 407.674 272.354 407.63 271.398ZM406.203 270.585C406.307 270.525 406.438 270.536 406.531 270.613C406.852 270.809 407.074 271.135 407.139 271.507C407.35 272.918 405.721 275.175 404.776 276.352C404.954 274.076 405.445 270.969 406.203 270.585Z" fill="#B8D7CB"/>
<path d="M404.796 277.064C404.956 275.435 404.268 271.469 403.031 270.997C402.775 270.89 402.393 270.908 401.988 271.467C400.405 273.748 404.207 277.135 404.392 277.234C404.453 277.299 404.548 277.32 404.631 277.288C404.669 277.25 404.695 277.202 404.706 277.15L404.796 277.064ZM402.304 271.74C402.593 271.313 402.754 271.4 402.812 271.432C403.586 271.684 404.314 274.686 404.3 276.544C403.444 275.696 401.377 273.436 402.205 271.896L402.304 271.74Z" fill="#B8D7CB"/>
<path d="M405.136 280.911C405.056 280.911 404.978 280.869 404.936 280.794C404.21 279.514 404.084 277.926 404.599 276.547C404.644 276.428 404.775 276.367 404.894 276.413C405.013 276.458 405.072 276.589 405.029 276.708C404.561 277.961 404.676 279.404 405.336 280.569C405.397 280.679 405.359 280.818 405.248 280.882C405.213 280.901 405.175 280.911 405.136 280.911Z" fill="#B8D7CB"/>
<path d="M407.977 279.598C407.897 279.598 407.819 279.556 407.777 279.481C407.052 278.202 406.926 276.615 407.441 275.234C407.486 275.116 407.616 275.056 407.736 275.1C407.855 275.145 407.914 275.276 407.871 275.395C407.403 276.649 407.517 278.093 408.177 279.256C408.238 279.366 408.2 279.505 408.089 279.569C408.054 279.589 408.015 279.598 407.977 279.598Z" fill="#B8D7CB"/>
<path d="M410.843 277.606C410.764 277.606 410.686 277.564 410.643 277.49C409.919 276.209 409.792 274.622 410.307 273.242C410.352 273.124 410.481 273.063 410.602 273.107C410.72 273.152 410.78 273.283 410.737 273.403C410.269 274.656 410.384 276.1 411.043 277.263C411.105 277.373 411.066 277.513 410.956 277.576C410.92 277.597 410.882 277.606 410.843 277.606Z" fill="#B8D7CB"/>
<path opacity="0.3" d="M391.724 274.539L394.906 276.315L389.965 288.796L386.241 287.61L391.724 274.539Z" fill="black"/>
<path d="M319.602 220.024L332.55 227.944C349.174 228.767 405.35 229.232 405.515 249.231C411.029 272.803 360.159 270.558 326.341 270.888C326.112 270.891 325.915 271.029 325.78 271.241C325.481 271.711 322.2 273.394 318.009 274.06C312.846 274.88 301.037 275.598 293.45 274.398C280.363 272.327 276.59 259.888 279.094 242.391C280.123 235.2 284.092 229.362 285.299 220.404L319.602 220.024Z" fill="#263238"/>
<path opacity="0.2" d="M284.125 246.632L284.206 247.448C284.206 247.448 326.987 240.36 353.051 257.502C353.051 257.502 381.294 250.566 387.036 245.292C355.753 261.762 327.737 242.692 327.737 242.692L313.936 236.521C302.662 231.479 291.307 235.33 284.125 246.632Z" fill="black"/>
<path d="M332.563 274.361L337.503 284.553L366.18 276.76L358.825 261.156L332.563 274.361Z" fill="#EEC1BB"/>
<path d="M343.831 284.337L341.465 281.082C340.929 280.345 340.061 279.935 339.151 279.932C335.225 279.92 335.167 277.805 336.091 274.01C335.298 272.602 333.556 273.336 333.079 273.523L322.466 277.531C321.573 277.858 321.115 278.845 321.441 279.739C321.499 279.897 321.581 280.047 321.682 280.182C324.556 284.135 325.916 286.005 329.494 290.923L340.435 305.969C343.417 310.07 348.166 307.912 347.319 305.944C343.472 297.125 341.794 290.119 342.294 286.163C342.364 285.446 342.978 285.682 343.831 284.337Z" fill="#263238"/>
<path d="M346.454 293.23C346.949 293.394 347.492 293.311 347.917 293.009C348.164 292.873 348.311 292.608 348.297 292.326C348.277 290.78 343.417 288.095 342.862 287.8C342.807 287.763 342.738 287.752 342.674 287.771C342.556 287.806 342.488 287.93 342.523 288.048C343.014 289.221 343.625 290.339 344.347 291.383C344.834 292.209 345.573 292.856 346.454 293.23ZM347.804 292.296C347.813 292.416 347.746 292.529 347.637 292.58C347.32 292.784 346.931 292.843 346.568 292.74C345.206 292.318 343.88 289.871 343.23 288.507C345.201 289.657 347.787 291.447 347.804 292.296Z" fill="#B8D7CB"/>
<path d="M342.58 288.218C343.978 289.069 347.848 290.168 348.809 289.256C349.016 289.073 349.166 288.72 348.838 288.113C347.471 285.696 342.772 287.655 342.602 287.779C342.518 287.807 342.458 287.883 342.45 287.971C342.468 288.021 342.501 288.066 342.543 288.099L342.58 288.218ZM348.455 288.278C348.714 288.724 348.565 288.832 348.512 288.871C347.95 289.459 344.931 288.814 343.264 287.996C344.4 287.592 347.329 286.709 348.358 288.121L348.455 288.278Z" fill="#B8D7CB"/>
<path d="M342.965 288.654C342.904 288.654 342.845 288.631 342.799 288.583C341.874 287.618 340.522 287.098 339.191 287.185C339.063 287.204 338.955 287.097 338.947 286.972C338.939 286.846 339.034 286.736 339.161 286.728C340.628 286.617 342.113 287.204 343.131 288.267C343.218 288.359 343.215 288.504 343.123 288.592C343.079 288.632 343.022 288.654 342.965 288.654Z" fill="#B8D7CB"/>
<path d="M342.914 291.785C342.854 291.785 342.794 291.762 342.749 291.714C341.823 290.749 340.469 290.23 339.14 290.316C339.026 290.336 338.904 290.229 338.896 290.102C338.888 289.975 338.983 289.866 339.11 289.858C340.577 289.761 342.062 290.335 343.08 291.396C343.168 291.488 343.165 291.633 343.074 291.72C343.029 291.763 342.972 291.785 342.914 291.785Z" fill="#B8D7CB"/>
<path d="M343.466 295.233C343.405 295.233 343.346 295.21 343.301 295.162C342.375 294.196 341.025 293.677 339.692 293.764C339.579 293.785 339.457 293.677 339.448 293.551C339.44 293.424 339.535 293.315 339.662 293.307C341.13 293.199 342.613 293.783 343.632 294.845C343.719 294.937 343.716 295.082 343.624 295.17C343.58 295.211 343.523 295.233 343.466 295.233Z" fill="#B8D7CB"/>
<path d="M392.628 273.619C392.628 273.619 326.769 236.725 304.15 236.024C281.53 235.324 278.967 252.406 287.287 265.555C295.609 278.703 316.484 272.329 316.484 272.329C316.484 272.329 299.97 268.147 302.014 263.666C304.059 259.184 310.159 266.139 310.159 266.139C310.159 266.139 350.172 282.581 385.876 288.408L392.628 273.619Z" fill="#263238"/>
<path opacity="0.2" d="M358.692 255.356L379.891 267.599L382.128 267.362L362.064 254.713L358.692 255.356Z" fill="black"/>
<path opacity="0.2" d="M325.052 271.773C325.052 271.773 303.69 263.292 303.927 263.292C304.163 263.292 317.389 273.212 321.719 273.166L325.052 271.773Z" fill="black"/>
<path d="M329.593 156.289C329.593 156.289 332.173 155.697 341.622 166.716C348.037 174.198 357.776 179.704 357.776 179.704C358.614 177.901 373.338 156.289 373.338 156.289L382.705 161.61C382.705 161.61 368.953 197.196 360.012 198.594C351.07 199.992 330.228 182.002 330.228 182.002L329.593 156.289Z" fill="#B8D7CB"/>
<path d="M278.178 169.376C282.252 181.619 282.444 209.287 281.001 224.571H331.387C339.33 194.079 332.453 172.391 331.776 165.247C330.933 156.557 329.593 156.225 329.593 156.225C329.593 156.225 320.168 155.306 311.97 155.369C305.62 155.607 299.296 156.294 293.044 157.426C288.392 158.204 283.788 159.24 279.251 160.532C277.305 161.086 276.175 163.115 276.729 165.063C276.746 165.124 276.765 165.186 276.787 165.247C277.272 166.615 277.744 168.021 278.178 169.376Z" fill="#B8D7CB"/>
<path opacity="0.2" d="M281.001 224.571C282.205 210.333 291.435 193.913 289.985 179.698C294.272 185.791 295.692 197.755 297.43 211.115C297.996 215.466 313.775 219.866 314.518 224.358L281.001 224.571Z" fill="black"/>
<path d="M288.97 159.049C286.621 162.41 315.507 167.816 315.507 167.816C315.507 167.816 332.416 156.838 312.672 155.125C308.649 154.768 292.686 153.771 288.97 159.049Z" fill="#CD877B"/>
<path d="M316.452 174.04C316.452 174.04 332.019 161.184 323.962 153.49C315.904 145.796 277.988 142.358 281.193 159.88C281.193 159.88 286.071 158.436 291.001 163.139C301.383 173.082 316.452 174.04 316.452 174.04Z" fill="#B8D7CB"/>
<path opacity="0.2" d="M315.149 170.347C315.149 170.347 323.961 163.497 320.858 157.324C317.755 151.151 299.416 144.391 286.275 152.902C289.426 154.518 292.354 156.537 294.985 158.908C300.195 163.369 315.149 170.347 315.149 170.347Z" fill="black"/>
<path opacity="0.2" d="M311.803 171.216C311.811 171.703 311.422 172.104 310.935 172.11C310.448 172.117 310.048 171.728 310.041 171.241C310.034 170.754 310.423 170.353 310.91 170.347C310.918 170.347 310.926 170.347 310.936 170.347C311.412 170.353 311.797 170.739 311.803 171.216Z" fill="black"/>
<path opacity="0.2" d="M320.589 168.685C320.597 169.165 320.213 169.56 319.733 169.566C319.729 169.566 319.725 169.566 319.721 169.566C319.237 169.625 318.799 169.281 318.74 168.797C318.681 168.313 319.025 167.875 319.509 167.816C319.579 167.808 319.65 167.808 319.721 167.816C320.2 167.816 320.589 168.205 320.589 168.685Z" fill="black"/>
<path d="M328.775 177.504C328.782 177.99 328.393 178.391 327.906 178.398C327.419 178.405 327.019 178.016 327.013 177.528C327.005 177.042 327.394 176.641 327.882 176.634C327.886 176.634 327.89 176.634 327.894 176.634C328.376 176.634 328.768 177.022 328.775 177.504Z" fill="#263238"/>
<path d="M309.812 182.002C309.812 182.482 309.423 182.871 308.943 182.871C308.463 182.871 308.074 182.482 308.074 182.002C308.074 181.522 308.463 181.132 308.943 181.132C309.423 181.133 309.812 181.522 309.812 182.002Z" fill="#263238"/>
<path d="M327.69 177.873C327.69 177.873 324.28 177.413 323.693 173.056C323.624 170.948 321.892 169.278 319.785 169.285C319.606 169.285 319.453 169.158 319.453 168.979C319.439 168.81 319.564 168.662 319.733 168.647C319.742 168.646 319.75 168.646 319.76 168.646C322.186 168.649 324.189 170.542 324.332 172.967C324.843 176.8 327.741 177.235 327.767 177.248C327.939 177.268 328.063 177.421 328.048 177.593C328.021 177.766 327.864 177.889 327.69 177.873Z" fill="#263238"/>
<path d="M308.942 182.002C308.771 182.002 308.63 181.867 308.623 181.695C308.554 179.452 309.375 177.274 310.909 175.637C311.51 175.108 311.866 174.355 311.893 173.554C311.827 172.752 311.483 171.996 310.922 171.42C310.778 171.318 310.744 171.118 310.847 170.975C310.949 170.831 311.149 170.797 311.292 170.899C311.316 170.917 311.338 170.937 311.356 170.96C312.048 171.638 312.466 172.548 312.531 173.516C312.511 174.492 312.091 175.415 311.369 176.071C309.971 177.58 309.215 179.574 309.262 181.631C309.27 181.805 309.142 181.956 308.968 181.976L308.942 182.002Z" fill="#263238"/>
<path d="M342.809 248.073L345.342 248.532C345.342 248.532 344.639 246.251 353.612 243.272C362.586 240.292 371.531 238.677 371.531 238.677C371.531 238.677 355.301 237.862 354.879 237.862C354.457 237.862 339.439 243.197 339.439 243.197L342.809 248.073Z" fill="#B8D7CB"/>
<path d="M336.382 231.496C336.829 231.503 371.532 238.677 371.532 238.677C371.532 238.677 347.404 237.791 342.809 248.074L314.723 236.532C314.723 236.532 322.597 231.286 336.382 231.496Z" fill="#EBEBEB"/>
<path d="M394.906 231.492V233.007C394.906 233.007 379.32 231.198 371.533 238.676L371.113 235.084L381.443 230.342L394.906 231.492Z" fill="#B8D7CB"/>
<path d="M363.377 224.479C363.377 224.479 344.552 219.495 337.631 231.731L371.532 238.677C371.532 238.677 373.099 229.353 394.905 231.492L363.377 224.479Z" fill="#EBEBEB"/>
<path d="M277.762 161.314C276.966 161.599 271.794 165.924 272.044 176.057C272.409 190.911 276.065 221.686 277.762 224.571C279.459 227.457 324.384 240.061 325.052 240.791C325.719 241.521 328.049 232.947 328.049 232.947L293.46 210.991C293.46 210.991 291.414 180.054 290.599 175.414C289.783 170.774 287.426 157.845 277.762 161.314Z" fill="#B8D7CB"/>
<path d="M327.654 234.342L329.593 235.214C329.593 235.214 338.748 234.491 341.069 236.807C343.391 239.123 344.693 249.69 344.693 249.69L325.052 240.791L327.654 234.342Z" fill="#EEC1BB"/>
<path d="M295.963 160.042C295.963 160.042 300.142 162.803 306.029 166.386C307.256 167.132 313.519 169.89 314.88 170.347L317.413 168.171C317.539 167.783 317.617 167.371 317.654 166.946C317.909 164.103 316.981 160.318 314.487 158.93C311.675 157.366 310.196 155.874 310.199 153.122C310.182 151.565 310.47 149.907 310.859 148.279L307.705 147.034L295.771 138.415C297.991 144.548 300.724 155.404 295.963 160.042Z" fill="#EEC1BB"/>
<path opacity="0.2" d="M310.214 153.723C307.126 152.522 303.56 150.139 303.38 146.769C303.313 145.348 303.393 143.979 303.586 143.077L310.552 149.69C310.287 150.987 310.25 151.821 310.214 153.723Z" fill="black"/>
<path d="M291.857 127.109C294.565 137.456 295.492 141.881 301.826 146.488C311.354 153.418 323.428 148.542 323.855 137.768C324.239 128.07 319.744 112.779 308.702 110.079C297.825 107.421 289.148 116.761 291.857 127.109Z" fill="#EEC1BB"/>
<path d="M306.58 128.197C306.817 129.3 307.57 130.112 308.263 130.011C308.956 129.911 309.325 128.935 309.09 127.832C308.853 126.729 308.1 125.916 307.407 126.017C306.714 126.117 306.344 127.093 306.58 128.197Z" fill="#263238"/>
<path d="M317.237 126.366C317.468 127.434 318.215 128.219 318.906 128.119C319.597 128.019 319.969 127.071 319.738 126.002C319.507 124.934 318.759 124.149 318.069 124.249C317.378 124.35 317.005 125.297 317.237 126.366Z" fill="#263238"/>
<path d="M303.19 124.757C303.326 124.75 303.456 124.688 303.544 124.575C304.912 122.807 306.82 123.03 306.842 123.033C307.126 123.067 307.373 122.869 307.389 122.582C307.405 122.297 307.184 122.036 306.897 121.999C306.797 121.987 304.401 121.705 302.703 123.9C302.534 124.118 302.585 124.448 302.816 124.634C302.929 124.724 303.063 124.764 303.19 124.757Z" fill="#263238"/>
<path d="M318.98 120.656C319.08 120.603 319.155 120.509 319.182 120.386C319.238 120.132 319.071 119.849 318.809 119.755C316.185 118.804 314.577 120.126 314.509 120.184C314.319 120.345 314.317 120.652 314.506 120.87C314.694 121.088 315.001 121.134 315.191 120.975C315.254 120.922 316.518 119.917 318.605 120.674C318.74 120.723 318.874 120.712 318.98 120.656Z" fill="#263238"/>
<path d="M313.472 126.466C313.472 126.466 315.768 130.125 318.029 132.268C318.424 132.643 318.328 133.302 317.855 133.571C316.637 134.264 315.049 134.085 315.049 134.085L313.472 126.466Z" fill="#D4827D"/>
<path d="M307.019 126.128L309.334 125.157C309.334 125.157 308.315 127.176 307.019 126.128Z" fill="#263238"/>
<path d="M317.713 124.348L320.028 123.377C320.028 123.377 319.009 125.395 317.713 124.348Z" fill="#263238"/>
<path d="M296.359 140.87C261.163 119.059 300.503 104.238 300.503 104.238C316.312 93.1605 316.86 110.008 316.86 110.008C324.78 118.28 313.57 125.517 313.57 125.517C318.292 118.718 310.984 114.658 310.984 114.658C312.108 123.697 303.295 127.243 303.295 127.243C306.743 119.087 304.543 114.871 304.543 114.871C302.016 129.405 294.757 132.319 294.757 132.319L296.359 140.87Z" fill="#263238"/>
<path d="M290.104 136.201C291.702 138.15 293.942 139.167 295.867 139.323C298.762 139.558 299.454 134.847 298.042 132.219C296.771 129.852 293.764 128.647 291.15 129.644C288.575 130.627 288.276 133.973 290.104 136.201Z" fill="#EEC1BB"/>
<path opacity="0.2" d="M297.048 134.766C296.945 134.766 296.853 134.697 296.826 134.594C296.615 133.764 296.182 132.998 295.574 132.38C295.178 131.978 294.538 131.482 293.745 131.396C293.028 131.322 292.313 131.655 292.036 132.194C291.978 132.306 291.839 132.351 291.727 132.292C291.615 132.234 291.57 132.096 291.628 131.983C291.995 131.272 292.885 130.84 293.794 130.94C294.723 131.039 295.453 131.603 295.9 132.058C296.566 132.734 297.04 133.571 297.271 134.481C297.302 134.604 297.228 134.729 297.105 134.76C297.086 134.764 297.066 134.766 297.048 134.766Z" fill="black"/>
<path d="M314.869 137.898C314.076 138.92 313.359 140 312.722 141.126C312.509 141.048 312.29 140.974 312.082 140.886C309.189 139.782 308.205 138.319 308.009 137.023C307.924 136.387 307.989 135.741 308.2 135.135C308.31 134.791 308.468 134.464 308.669 134.163C309.855 135.667 312.465 136.901 313.892 137.501C314.518 137.731 314.869 137.898 314.869 137.898Z" fill="#263238"/>
<path d="M313.925 137.484L313.265 138.42C310.55 137.377 308.776 136.286 308.233 135.118C308.343 134.773 308.501 134.447 308.702 134.146C309.896 135.663 312.498 136.884 313.925 137.484Z" fill="white"/>
<path d="M312.117 140.868C309.224 139.764 308.24 138.301 308.044 137.005C309.136 137.444 310.141 138.073 311.013 138.862C311.581 139.4 311.966 140.1 312.117 140.868Z" fill="#C15854"/>
<path d="M237.798 357.502L249.589 379.077L259.881 376.014L250.53 350.975L237.798 357.502Z" fill="#895555"/>
<path d="M252.217 390.703L259.577 389.136C259.577 389.136 259.997 387.63 261.549 387.253C262.421 387.041 264.736 387.823 264.736 387.823L285.008 383.668C285.002 383.639 284.728 382.277 284.38 381.721C283.955 381.043 283.511 380.488 283.054 380.035C281.449 378.454 278.998 378.132 277.178 377.959C274.127 377.669 265.312 375.333 265.312 375.333C265.312 375.333 263.029 374.511 261.139 371.92C260.085 370.475 258.684 369.748 257.783 369.818C255.944 369.959 255.176 371.224 255.27 372.942L255.383 374.938C254.237 376.284 252.429 376.603 250.771 375.596C250.771 375.596 246.507 374.144 247.12 376.011C247.469 377.077 249.213 381.784 250.479 385.544C250.775 386.42 251.053 387.25 251.297 387.978H251.299C251.842 389.594 252.217 390.703 252.217 390.703Z" fill="#263238"/>
<path d="M270.025 376.407C269.916 376.343 269.775 376.365 269.683 376.452C269.263 376.855 268.947 377.363 268.782 377.953C268.696 378.263 269.193 378.44 269.28 378.126C269.425 377.603 269.701 377.153 270.068 376.801C270.19 376.683 270.174 376.494 270.029 376.41C270.027 376.409 270.026 376.408 270.025 376.407Z" fill="#B8D7CB"/>
<path d="M268.287 375.885C268.179 375.822 268.038 375.843 267.946 375.93C267.526 376.333 267.208 376.842 267.045 377.431C266.959 377.741 267.455 377.919 267.542 377.605C267.687 377.081 267.963 376.632 268.33 376.279C268.453 376.162 268.438 375.972 268.292 375.888C268.292 375.888 268.289 375.886 268.287 375.885Z" fill="#B8D7CB"/>
<path d="M266.514 375.431C266.406 375.367 266.263 375.388 266.173 375.476C265.752 375.878 265.436 376.387 265.272 376.977C265.186 377.287 265.682 377.464 265.769 377.15C265.914 376.627 266.19 376.177 266.557 375.825C266.68 375.707 266.663 375.518 266.518 375.433C266.517 375.432 266.516 375.431 266.514 375.431Z" fill="#B8D7CB"/>
<path opacity="0.2" d="M261.55 387.253C262.421 387.041 264.737 387.824 264.737 387.824L285.009 383.669C285.002 383.639 284.728 382.278 284.381 381.722C284.185 381.41 283.985 381.131 283.782 380.871L251.161 387.573C251.206 387.706 251.255 387.851 251.297 387.979H251.299C251.842 389.593 252.217 390.702 252.217 390.702L259.577 389.136C259.577 389.136 259.999 387.63 261.55 387.253Z" fill="white"/>
<path d="M266.326 375.944L266.265 375.736C266.06 375.051 265.85 374.341 265.768 373.612C265.673 372.784 265.763 372.05 266.034 371.432C266.222 371.002 266.5 370.741 266.816 370.697C267.228 370.641 267.587 370.953 267.782 371.268C268.133 371.832 268.224 372.581 268.033 373.321C267.846 374.047 266.784 375.383 266.463 375.775L266.326 375.944ZM266.916 370.921C266.894 370.921 266.871 370.922 266.848 370.926C266.532 370.97 266.334 371.321 266.244 371.525C265.99 372.106 265.905 372.8 265.995 373.588C266.068 374.223 266.243 374.851 266.423 375.462C267.033 374.7 267.681 373.768 267.811 373.265C267.986 372.585 267.904 371.902 267.587 371.391C267.442 371.156 267.194 370.921 266.916 370.921Z" fill="#B8D7CB"/>
<path d="M266.101 375.836C265.449 375.836 264.01 375.803 263.395 375.526C262.698 375.21 262.172 374.671 261.952 374.046C261.828 373.696 261.805 373.221 262.111 372.934C262.343 372.715 262.721 372.662 263.172 372.782C263.822 372.957 264.452 373.346 265.04 373.94C265.556 374.46 265.976 375.068 266.383 375.655L266.506 375.833L266.29 375.835C266.238 375.836 266.174 375.836 266.101 375.836ZM262.724 372.948C262.56 372.948 262.391 372.985 262.268 373.101C262.043 373.312 262.069 373.689 262.168 373.969C262.368 374.536 262.849 375.028 263.489 375.317C263.962 375.531 265.094 375.606 266.069 375.607C265.706 375.085 265.326 374.555 264.876 374.1C264.317 373.537 263.723 373.167 263.112 373.004C263.012 372.977 262.87 372.948 262.724 372.948Z" fill="#B8D7CB"/>
<path d="M189.068 373.325L183.686 397.318L193.435 401.82L202.936 376.836L189.068 373.325Z" fill="#895555"/>
<path d="M177.987 407.786L184.548 411.473C184.548 411.473 185.858 410.62 187.272 411.362C188.066 411.779 189.289 413.897 189.289 413.897L207.254 424.174C207.269 424.147 207.961 422.944 208.066 422.297C208.193 421.507 208.227 420.796 208.181 420.154C208.021 417.906 206.392 416.044 205.139 414.711C203.04 412.477 197.962 404.898 197.962 404.898C197.962 404.898 196.79 402.772 197.081 399.578C197.243 397.796 196.67 396.324 195.947 395.781C194.474 394.671 193.062 395.114 191.999 396.467L190.767 398.04C189.017 398.294 187.45 397.339 186.868 395.486C186.868 395.486 184.625 391.577 183.852 393.385C183.412 394.417 181.614 399.104 180.083 402.763C179.727 403.617 179.389 404.424 179.093 405.132L179.095 405.134C178.438 406.704 177.987 407.786 177.987 407.786Z" fill="#263238"/>
<path d="M200.794 408.818C200.755 408.698 200.635 408.62 200.508 408.626C199.926 408.651 199.353 408.824 198.841 409.158C198.571 409.334 198.827 409.794 199.1 409.617C199.554 409.32 200.058 409.165 200.567 409.143C200.736 409.135 200.849 408.983 200.796 408.823C200.795 408.821 200.794 408.819 200.794 408.818Z" fill="#B8D7CB"/>
<path d="M199.833 407.278C199.794 407.159 199.674 407.081 199.547 407.086C198.965 407.111 198.392 407.284 197.88 407.619C197.61 407.795 197.866 408.255 198.139 408.078C198.594 407.78 199.097 407.625 199.606 407.603C199.775 407.596 199.888 407.443 199.835 407.284C199.835 407.282 199.834 407.28 199.833 407.278Z" fill="#B8D7CB"/>
<path d="M198.802 405.764C198.762 405.645 198.642 405.567 198.516 405.573C197.934 405.597 197.361 405.77 196.849 406.105C196.579 406.281 196.835 406.741 197.108 406.563C197.562 406.266 198.066 406.11 198.574 406.088C198.744 406.081 198.857 405.929 198.804 405.769C198.804 405.769 198.803 405.766 198.802 405.764Z" fill="#B8D7CB"/>
<path opacity="0.2" d="M187.273 411.362C188.067 411.779 189.29 413.897 189.29 413.897L207.255 424.174C207.27 424.147 207.962 422.944 208.067 422.296C208.125 421.934 208.159 421.592 208.18 421.262L179.26 404.738C179.206 404.867 179.146 405.009 179.095 405.133L179.096 405.133C178.439 406.705 177.988 407.786 177.988 407.786L184.549 411.473C184.549 411.473 185.858 410.62 187.273 411.362Z" fill="white"/>
<path d="M198.322 406.026L198.413 405.829C198.712 405.18 199.021 404.509 199.44 403.906C199.918 403.221 200.469 402.729 201.08 402.444C201.504 402.247 201.885 402.234 202.151 402.41C202.502 402.64 202.561 403.113 202.5 403.477C202.391 404.133 201.966 404.755 201.334 405.185C200.715 405.606 199.036 405.907 198.536 405.99L198.322 406.026ZM201.71 402.516C201.51 402.516 201.306 402.592 201.176 402.653C200.602 402.92 200.082 403.385 199.628 404.037C199.262 404.563 198.979 405.151 198.711 405.728C199.673 405.558 200.774 405.288 201.204 404.996C201.784 404.601 202.173 404.033 202.272 403.44C202.322 403.147 202.282 402.771 202.025 402.602C201.93 402.539 201.821 402.516 201.71 402.516Z" fill="#B8D7CB"/>
<path d="M198.529 406.062L198.365 405.921C197.982 405.591 196.706 404.459 196.396 403.776C196.081 403.079 196.041 402.326 196.289 401.71C196.428 401.367 196.725 400.995 197.143 400.98C197.15 400.98 197.16 400.98 197.167 400.98C197.478 400.98 197.787 401.189 198.039 401.569C198.414 402.131 198.628 402.839 198.678 403.671C198.722 404.404 198.637 405.138 198.554 405.848L198.529 406.062ZM197.167 401.21C197.161 401.21 197.156 401.21 197.15 401.21C196.842 401.22 196.613 401.519 196.502 401.797C196.278 402.354 196.316 403.04 196.606 403.681C196.82 404.155 197.62 404.96 198.352 405.605C198.425 404.974 198.488 404.325 198.449 403.686C198.403 402.894 198.201 402.224 197.849 401.697C197.727 401.513 197.478 401.21 197.167 401.21Z" fill="#B8D7CB"/>
<path d="M198.486 216.57C198.486 216.57 201.888 246.881 202.797 248.506C205.872 254.005 226.239 263.434 226.239 263.434L236.625 261.257L244.066 267.477L239.159 271.323L233.402 269.147C230.26 269.707 227.075 269.987 223.884 269.981C218.519 269.981 192.65 263.42 188.333 256.202C184.016 248.985 182.032 215.562 182.032 215.562L198.486 216.57Z" fill="#895555"/>
<path d="M181.592 228.484C181.592 228.484 173.612 201.866 183.555 194.476C193.499 187.086 201.407 223.684 201.407 223.684L181.592 228.484Z" fill="#B8D7CB"/>
<path d="M187.89 277.172L187.813 241.891L187.055 193.583L167.221 190.748L150.329 190.595L127.468 197.706L126.986 209.559C126.986 209.559 129.346 263.988 129.213 265.63C129.05 267.641 128.544 282.572 128.544 282.572C154.606 288.517 188.301 278.971 187.89 277.172Z" fill="#B8D7CB"/>
<path opacity="0.2" d="M187.52 227.048L186.454 204.294L191.54 226.074L187.52 227.048Z" fill="black"/>
<path opacity="0.2" d="M143.422 230.362C144.064 230.236 147.312 229.171 147.312 229.171L140.091 209.069L150.004 231.307L144.045 233.681L143.422 230.362Z" fill="black"/>
<path d="M140.63 213.69C140.63 213.69 145.683 247.341 148.602 250.487C153.535 255.802 177.968 269.907 177.968 269.907L190.163 265.628C191.018 265.347 191.963 265.501 192.661 266.035L200.998 272.404L200.202 273.076C199.858 273.366 199.36 273.425 198.955 273.223L197.659 272.577L199.109 273.998L198.65 274.386C198.193 274.771 197.56 274.909 196.974 274.752L193.246 273.752L196.687 276.043C195.919 276.691 194.849 276.916 193.869 276.636L188.414 275.08C184.695 275.932 180.905 276.475 177.089 276.703C170.667 277.099 140.337 266.494 134.683 258.729C129.03 250.965 123.201 218.724 123.201 218.724L140.63 213.69Z" fill="#895555"/>
<path d="M124.491 236.077C124.491 236.077 116.933 205.579 126.877 198.189C136.821 190.799 146.669 229.382 146.669 229.382L124.491 236.077Z" fill="#B8D7CB"/>
<path d="M205.883 274.841H187.126H167.223C167.223 274.845 167.223 274.849 167.223 274.854C167.233 276.331 168.881 277.523 170.905 277.516H190.791H202.167C202.184 277.516 202.201 277.516 202.219 277.516H202.222H233.88C235.887 277.502 237.501 276.306 237.492 274.841H205.883Z" fill="#263238"/>
<path d="M234.459 277.365H199.14C198.53 277.362 198.04 276.961 198.046 276.471C198.047 276.379 198.065 276.288 198.102 276.2L213.813 240.154C214.209 239.125 215.393 238.421 216.735 238.417H252.075C252.672 238.417 253.157 238.806 253.157 239.286C253.157 239.386 253.135 239.486 253.092 239.581L237.381 275.627C236.977 276.653 235.798 277.354 234.459 277.365Z" fill="#263238"/>
<path opacity="0.7" d="M252.074 238.416H216.734C215.392 238.42 214.209 239.124 213.812 240.153L198.694 274.841H187.125H167.222C167.222 274.845 167.222 274.849 167.222 274.854C167.232 276.331 168.88 277.522 170.904 277.516H190.79H202.166C202.183 277.516 202.201 277.516 202.218 277.516H202.221H233.879C234.515 277.511 235.103 277.377 235.622 277.164C236.443 276.887 237.1 276.338 237.38 275.627L253.091 239.58C253.134 239.486 253.156 239.386 253.156 239.285C253.156 238.806 252.672 238.416 252.074 238.416Z" fill="white"/>
<path d="M230.85 257.606C230.087 259.336 228.54 260.524 227.386 260.282C226.233 260.041 225.925 258.464 226.666 256.729C227.406 254.994 228.971 253.834 230.125 254.076C231.278 254.318 231.623 255.831 230.85 257.606Z" fill="white"/>
<g opacity="0.3">
<path d="M213.813 240.154L198.694 274.842H200.332L216.736 238.417C215.393 238.421 214.209 239.124 213.813 240.154Z" fill="black"/>
</g>
<path d="M177.55 148.736L178.666 149.392C179.971 149.418 181.199 150.405 181.505 151.677C181.811 152.947 181.169 154.386 180.019 155.005C179.846 155.099 179.646 155.194 179.584 155.381C179.486 155.68 179.8 155.935 180.038 156.142C181.212 157.157 181.066 159.174 180.011 160.311C178.956 161.449 177.28 161.816 175.733 161.693C175.33 157.328 177.926 153.104 177.55 148.736Z" fill="#263238"/>
<path d="M144.333 161.023C142.673 161.103 141.013 160.078 140.341 158.556C140.156 158.135 140.039 157.668 140.115 157.215C140.322 155.986 141.731 155.424 142.929 155.084C141.59 154.757 140.692 153.425 140.436 152.071C140.318 151.451 140.308 150.8 140.509 150.202C140.847 149.196 141.747 148.459 142.731 148.062C143.714 147.666 144.787 147.56 145.843 147.459L151.928 166.776C150.569 167.08 149.158 167.267 147.786 167.033C146.414 166.798 145.075 166.099 144.309 164.936C143.543 163.771 143.47 162.117 144.333 161.023Z" fill="#263238"/>
<path d="M147.739 191.402C153.354 186.61 153.086 173.318 152.08 166.09L168.084 179.972C167.698 180.789 167.368 181.632 167.098 182.495C166.556 184.035 166.419 185.689 166.701 187.298C166.989 188.626 168.469 192.325 168.469 192.325C168.469 192.325 169.272 196.462 158.385 196.265C153.598 196.695 147.739 191.402 147.739 191.402Z" fill="#895555"/>
<path opacity="0.2" d="M154.947 173.444C153.989 181.879 162.437 185.966 166.707 187.313C166.426 185.704 166.563 184.05 167.105 182.509L154.947 173.444Z" fill="black"/>
<path d="M149.336 159.788C151.312 169.755 152.22 175.415 158.132 179.854C167.024 186.531 178.904 180.438 180.034 170.061C181.05 160.72 177.649 145.99 166.991 143.388C156.492 140.825 147.36 149.822 149.336 159.788Z" fill="#895555"/>
<path d="M146.414 147.874C147.094 142.154 161.359 140.259 165.723 142.577C166.375 142.923 158.472 148.139 158.96 147.891L155.159 149.741C154.528 149.687 153.417 150.538 153.04 152.471C153.04 152.471 155.549 167.819 151.654 172.855C147.817 171.607 146.792 165.528 145.168 162.039C142.751 156.841 139.65 149.169 146.414 147.874Z" fill="#263238"/>
<path d="M146.373 168.689C147.545 171.17 149.79 172.879 151.973 173.605C155.256 174.698 155.968 171.271 155.253 168.144C154.61 165.328 153.291 161.967 149.902 162.228C146.561 162.486 145.034 165.853 146.373 168.689Z" fill="#895555"/>
<path d="M163.239 160.29C163.377 161.319 164.048 162.074 164.74 161.979C165.432 161.883 165.88 160.972 165.744 159.943C165.607 158.915 164.935 158.159 164.244 158.254C163.551 158.351 163.103 159.262 163.239 160.29Z" fill="#263238"/>
<path d="M173.639 159.692C173.776 160.72 174.448 161.476 175.139 161.381C175.831 161.285 176.28 160.374 176.142 159.346C176.006 158.318 175.333 157.561 174.643 157.657C173.951 157.753 173.501 158.664 173.639 159.692Z" fill="#263238"/>
<path d="M171.465 159.519C171.465 159.519 175.495 164.198 176.845 166.141C175.545 167.622 172.93 167.352 172.93 167.352L171.465 159.519Z" fill="#6D3939"/>
<path d="M161.284 156.274C161.452 156.317 161.64 156.273 161.772 156.143C163.344 154.592 165.152 154.913 165.169 154.916C165.44 154.968 165.704 154.796 165.76 154.533C165.816 154.271 165.641 154.017 165.372 153.965C165.276 153.947 163.011 153.544 161.062 155.468C160.868 155.66 160.869 155.966 161.065 156.153C161.128 156.213 161.204 156.253 161.284 156.274Z" fill="#263238"/>
<path opacity="0.2" d="M153.482 168.24C153.38 168.24 153.287 168.171 153.26 168.067C153.053 167.253 152.629 166.502 152.032 165.897C151.644 165.503 151.018 165.017 150.24 164.933C149.538 164.857 148.837 165.187 148.566 165.714C148.507 165.827 148.368 165.871 148.257 165.813C148.144 165.755 148.1 165.616 148.158 165.503C148.519 164.803 149.398 164.381 150.288 164.477C151.202 164.574 151.918 165.128 152.36 165.575C153.013 166.239 153.479 167.061 153.705 167.954C153.737 168.077 153.662 168.202 153.539 168.233C153.52 168.238 153.502 168.24 153.482 168.24Z" fill="black"/>
<path d="M178.912 154.727C179.002 154.696 179.083 154.64 179.144 154.56C179.31 154.344 179.268 154.039 179.05 153.878C176.856 152.265 174.699 153.032 174.598 153.054C174.339 153.147 174.204 153.427 174.297 153.679C174.389 153.93 174.671 154.059 174.929 153.969C175.018 153.933 176.687 153.364 178.448 154.658C178.585 154.761 178.761 154.78 178.912 154.727Z" fill="#263238"/>
<path d="M143.066 143.313C143.592 140.894 146.638 140.031 149.049 140.243C148.608 137.409 152.228 135.338 154.638 135.145C157.148 134.944 158.157 135.816 158.157 135.816C157.969 135.878 158.75 134.321 159.272 133.68C161.199 131.314 164.556 130.29 167.438 131.188C170.32 132.085 172.559 134.853 172.883 137.921C174.257 136.21 177.043 135.96 178.692 137.401C180.34 138.84 180.543 141.7 179.113 143.362C180.961 143.268 182.71 144.978 182.706 146.873C182.702 148.77 180.944 150.464 179.097 150.353C179.229 152.471 179.299 155.126 179.43 157.245L175.652 149.823C174.103 149.473 173.744 148.843 173.262 147.295C172.395 149.404 170.66 149.434 168.431 149.597C166.202 149.761 163.926 148.552 162.767 146.591C161.854 148.795 159.855 150.612 157.525 150.817C155.196 151.021 152.726 149.283 152.464 146.902C151.324 149.087 148.514 150.174 146.244 149.308C143.976 148.441 142.54 145.732 143.066 143.313Z" fill="#263238"/>
<path d="M172.549 170.765C171.691 171.872 170.914 173.039 170.225 174.259C169.995 174.175 169.758 174.094 169.532 173.999C166.401 172.804 165.336 171.221 165.124 169.818C165.032 169.131 165.103 168.431 165.33 167.776C165.45 167.403 165.62 167.05 165.838 166.724C167.121 168.35 169.945 169.687 171.49 170.336C172.168 170.585 172.549 170.765 172.549 170.765Z" fill="#263238"/>
<path d="M171.528 170.317L170.813 171.33C167.874 170.201 165.954 169.021 165.368 167.756C165.487 167.383 165.658 167.03 165.875 166.705C167.166 168.346 169.983 169.667 171.528 170.317Z" fill="white"/>
<path d="M169.569 173.98C166.438 172.786 165.373 171.202 165.161 169.8C166.343 170.275 167.431 170.956 168.375 171.81C168.989 172.391 169.407 173.15 169.569 173.98Z" fill="#C15854"/>
<path d="M227.091 311.495C226.704 315.341 225.871 320.597 224.869 324.33C222.144 334.87 219.032 345.008 215.121 355.477C207.554 376.161 201.44 395.352 201.44 395.352L182.222 389.583C182.222 389.583 194.928 329.735 203.498 323.617H150.95C149.968 323.617 148.987 323.551 148.014 323.42C157.063 322.248 171.167 316.666 184.255 311.086C195.818 306.14 206.632 301.196 212.491 299.331C219.663 302.397 227.642 305.462 227.091 311.495Z" fill="#263238"/>
<path opacity="0.6" d="M212.505 299.387C206.632 301.294 195.818 306.196 184.268 311.141C171.181 316.722 157.077 322.303 148.027 323.476C132.779 321.441 127.048 303.258 142.987 282.292C153.336 282.292 163.741 292.181 163.741 292.181C163.741 292.181 195.027 292.026 212.505 299.387Z" fill="black"/>
<path d="M255.297 363.784L242.591 371.484C242.591 371.484 231.988 349.204 221.852 324.07C222.855 320.337 223.553 316.528 223.941 312.682C224.492 306.649 219.706 302.397 212.534 299.401C206.662 301.309 195.847 306.211 184.298 311.156C171.21 316.737 157.106 322.317 148.057 323.49C147.017 323.63 145.971 323.705 144.922 323.716C127.529 323.716 121.528 308.457 128.545 282.574C138.894 282.574 156.612 281.458 156.612 281.458C156.612 281.458 190.806 273.235 215.414 276.033C227.395 277.445 237.093 286.438 239.415 298.285C245.754 329.706 255.297 363.784 255.297 363.784Z" fill="#263238"/>
<path d="M257.303 364.72L242.591 371.484C242.591 371.484 231.988 349.204 221.852 324.07C222.855 320.337 223.553 316.528 223.941 312.682C224.492 306.649 219.706 302.397 212.534 299.401C206.662 301.309 195.847 306.211 184.298 311.156C171.21 316.737 157.106 322.317 148.057 323.49C147.017 323.63 145.971 323.705 144.922 323.716C127.529 323.716 121.528 308.457 128.545 282.574C138.894 282.574 156.612 281.458 156.612 281.458C156.612 281.458 190.806 273.235 215.414 276.033C227.395 277.445 237.093 286.438 239.415 298.285C245.754 329.706 257.303 364.72 257.303 364.72Z" fill="#263238"/>
<path opacity="0.2" d="M227.091 311.495C226.704 315.341 225.871 320.597 224.869 324.33C222.144 334.87 219.032 345.008 215.121 355.477C207.554 376.161 201.44 395.352 201.44 395.352L182.222 389.583C182.222 389.583 194.928 329.735 203.498 323.617H150.95C149.968 323.617 148.987 323.551 148.014 323.42C157.063 322.248 171.167 316.666 184.255 311.086C195.818 306.14 206.632 301.196 212.491 299.331C219.663 302.397 227.642 305.462 227.091 311.495Z" fill="black"/>
<path d="M168.481 248.224C171.058 248.224 173.147 241.556 173.147 233.33C173.147 225.104 171.058 218.435 168.481 218.435C165.904 218.435 163.815 225.104 163.815 233.33C163.815 241.556 165.904 248.224 168.481 248.224Z" fill="white"/>
</svg>
