<svg width="778" height="731" viewBox="0 0 778 731" fill="none" xmlns="http://www.w3.org/2000/svg">
<path d="M565.542 94.244C484.326 98.4552 459.058 169.053 448.906 203.134C432.287 258.932 420.797 286.485 379.031 289.283C335.415 292.215 319.743 254.811 273.751 216.519C220.253 171.926 133.563 174.949 80.3062 277.973C20.6425 393.48 87.4652 510.205 200.16 596.219C264.576 645.4 329.323 654.875 424.482 634.586C590.373 599.197 695.939 467.898 721.657 316.385C736.276 230.401 699.383 87.2955 565.542 94.244Z" fill="#18A370"/>
<path opacity="0.7" d="M565.542 94.244C484.326 98.4552 459.058 169.053 448.906 203.134C432.287 258.932 420.797 286.485 379.031 289.283C335.415 292.215 319.743 254.811 273.751 216.519C220.253 171.926 133.563 174.949 80.3062 277.973C20.6425 393.48 87.4652 510.205 200.16 596.219C264.576 645.4 329.323 654.875 424.482 634.586C590.373 599.197 695.939 467.898 721.657 316.385C736.276 230.401 699.383 87.2955 565.542 94.244Z" fill="#92E3A9"/>
<path d="M0 582.473H701V582.124H0V582.473Z" fill="#ECECEC"/>
<path d="M584.324 605.039H630.761V604.69H584.324V605.039Z" fill="#ECECEC"/>
<path d="M452.183 608.844H464.37V608.494H452.183V608.844Z" fill="#ECECEC"/>
<path d="M556.014 592.02H582.921V591.67H556.014V592.02Z" fill="#ECECEC"/>
<path d="M73.5479 594.377H134.104V594.026H73.5479V594.377Z" fill="#ECECEC"/>
<path d="M146.588 594.377H155.467V594.026H146.588V594.377Z" fill="#ECECEC"/>
<path d="M184.322 600.296H315.656V599.945H184.322V600.296Z" fill="#ECECEC"/>
<mask id="mask0_80_9873" style="mask-type:luminance" maskUnits="userSpaceOnUse" x="0" y="46" width="701" height="701">
<path d="M0 46.0001H701V747H0V46.0001Z" fill="white"/>
</mask>
<g mask="url(#mask0_80_9873)">
<path d="M622.333 629.566C622.333 638.334 500.629 645.441 350.5 645.441C200.371 645.441 78.668 638.334 78.668 629.566C78.668 620.798 200.371 613.691 350.5 613.691C500.629 613.691 622.333 620.798 622.333 629.566Z" fill="#F5F5F5"/>
</g>
<path d="M344.151 375.623L346.511 378.544L122.566 556.921L132.104 568.73L133.414 570.353L357.357 391.973L359.716 394.894L363.911 375.584L344.151 375.623Z" fill="#127852"/>
<mask id="mask1_80_9873" style="mask-type:luminance" maskUnits="userSpaceOnUse" x="0" y="46" width="701" height="701">
<path d="M0 46.0001H701V747H0V46.0001Z" fill="white"/>
</mask>
<g mask="url(#mask1_80_9873)">
<mask id="mask2_80_9873" style="mask-type:luminance" maskUnits="userSpaceOnUse" x="122" y="375" width="242" height="196">
<path d="M122.566 375.583H363.91V570.352H122.566V375.583Z" fill="white"/>
</mask>
<g mask="url(#mask2_80_9873)">
<g opacity="0.699997">
<path d="M344.151 375.623L346.511 378.544L122.566 556.921L132.104 568.73L133.414 570.353L357.357 391.973L359.716 394.894L363.911 375.584L344.151 375.623Z" fill="white"/>
</g>
</g>
<path d="M89.6055 569.398C89.6055 565.326 92.9058 562.025 96.9786 562.025C97.7146 562.025 98.4254 562.137 99.0956 562.337C98.9877 561.599 98.9302 560.843 98.9302 560.075C98.9302 551.451 105.921 544.461 114.543 544.461C115.526 544.461 116.486 544.556 117.418 544.73C119.819 540.803 124.133 538.173 129.072 538.173C136.547 538.173 142.612 544.18 142.723 551.629C142.799 551.628 142.873 551.616 142.95 551.616C149.896 551.616 155.528 557.248 155.528 564.194C155.528 571.141 149.896 576.771 142.95 576.771H96.7613L96.7711 576.761C92.7964 576.65 89.6055 573.399 89.6055 569.398Z" fill="#127852"/>
<mask id="mask3_80_9873" style="mask-type:luminance" maskUnits="userSpaceOnUse" x="89" y="538" width="67" height="39">
<path d="M89.6055 538.172H155.527V576.771H89.6055V538.172Z" fill="white"/>
</mask>
<g mask="url(#mask3_80_9873)">
<g opacity="0.800003">
<path d="M89.6055 569.398C89.6055 565.326 92.9058 562.025 96.9786 562.025C97.7146 562.025 98.4254 562.137 99.0956 562.337C98.9877 561.599 98.9302 560.843 98.9302 560.075C98.9302 551.451 105.921 544.461 114.543 544.461C115.526 544.461 116.486 544.556 117.418 544.73C119.819 540.803 124.133 538.173 129.072 538.173C136.547 538.173 142.612 544.18 142.723 551.629C142.799 551.628 142.873 551.616 142.95 551.616C149.896 551.616 155.528 557.248 155.528 564.194C155.528 571.141 149.896 576.771 142.95 576.771H96.7613L96.7711 576.761C92.7964 576.65 89.6055 573.399 89.6055 569.398Z" fill="white"/>
</g>
</g>
</g>
<path d="M559.049 488.625L564.642 495.549L460.549 579.635L483.164 607.634L486.267 611.479L590.361 527.392L595.955 534.317L605.901 488.533L559.049 488.625Z" fill="#127852"/>
<mask id="mask4_80_9873" style="mask-type:luminance" maskUnits="userSpaceOnUse" x="0" y="46" width="701" height="701">
<path d="M0 46.0001H701V747H0V46.0001Z" fill="white"/>
</mask>
<g mask="url(#mask4_80_9873)">
<mask id="mask5_80_9873" style="mask-type:luminance" maskUnits="userSpaceOnUse" x="460" y="488" width="146" height="124">
<path d="M460.548 488.533H605.9V611.478H460.548V488.533Z" fill="white"/>
</mask>
<g mask="url(#mask5_80_9873)">
<g opacity="0.5">
<path d="M559.048 488.625L564.641 495.548L460.548 579.634L483.164 607.634L486.266 611.478L590.36 527.392L595.954 534.316L605.9 488.532L559.048 488.625Z" fill="white"/>
</g>
</g>
<path d="M502.771 576.609C498.571 569.907 491.14 565.435 482.647 565.435C474.012 565.435 466.476 570.057 462.318 576.945C461.226 576.641 460.079 576.466 458.89 576.466C451.861 576.466 446.163 582.164 446.163 589.193C446.163 589.198 446.164 589.203 446.164 589.209H439.453C435.958 589.209 433.098 592.069 433.098 595.565C433.098 599.061 435.958 601.921 439.453 601.921H462.61C466.826 608.542 474.214 612.95 482.647 612.95C489.297 612.95 495.3 610.211 499.613 605.807C500.014 605.841 500.416 605.869 500.825 605.869C508.944 605.869 515.527 599.288 515.527 591.167C515.527 583.709 509.969 577.564 502.771 576.609Z" fill="#127852"/>
<mask id="mask6_80_9873" style="mask-type:luminance" maskUnits="userSpaceOnUse" x="433" y="565" width="83" height="48">
<path d="M433.099 565.437H515.526V612.95H433.099V565.437Z" fill="white"/>
</mask>
<g mask="url(#mask6_80_9873)">
<g opacity="0.800003">
<path d="M502.771 576.609C498.571 569.907 491.14 565.435 482.647 565.435C474.012 565.435 466.476 570.057 462.318 576.945C461.226 576.641 460.079 576.466 458.89 576.466C451.861 576.466 446.163 582.164 446.163 589.193C446.163 589.198 446.164 589.203 446.164 589.209H439.453C435.958 589.209 433.098 592.069 433.098 595.565C433.098 599.061 435.958 601.921 439.453 601.921H462.61C466.826 608.542 474.214 612.95 482.647 612.95C489.297 612.95 495.3 610.211 499.613 605.807C500.014 605.841 500.416 605.869 500.825 605.869C508.944 605.869 515.527 599.288 515.527 591.167C515.527 583.709 509.969 577.564 502.771 576.609Z" fill="white"/>
</g>
</g>
</g>
<mask id="mask7_80_9873" style="mask-type:luminance" maskUnits="userSpaceOnUse" x="0" y="46" width="701" height="701">
<path d="M0 46.0001H701V747H0V46.0001Z" fill="white"/>
</mask>
<g mask="url(#mask7_80_9873)">
<path d="M346.49 292.124L344.47 289.994C343.925 289.422 343.128 289.166 342.352 289.314L339.328 289.896C338.339 290.086 337.586 290.892 337.464 291.89L335.915 304.563L340.606 306.361C346.316 303.877 346.022 296.333 346.022 296.333L346.842 294.831C347.326 293.948 347.183 292.854 346.49 292.124Z" fill="#FFB670"/>
<path d="M289.897 330.101C289.897 330.101 294.387 330.373 297.021 330.309C299.677 330.274 302.321 330.225 304.919 330.074C307.507 329.909 310.08 329.728 312.438 329.4C313.607 329.236 314.743 329.026 315.637 328.783C316.056 328.663 316.46 328.534 316.648 328.459C316.95 328.321 316.616 328.563 316.784 328.468C317.223 328.095 318.074 327.081 318.818 326.142C319.587 325.165 320.361 324.115 321.125 323.045C322.664 320.9 324.191 318.672 325.713 316.429L334.873 302.841L342.028 306.65C340.977 309.267 339.836 311.79 338.693 314.343C337.51 316.868 336.304 319.387 335.061 321.904C333.797 324.412 332.485 326.905 331.059 329.4C330.339 330.648 329.596 331.898 328.78 333.173C327.93 334.475 327.149 335.694 325.673 337.302C324.878 338.186 323.421 339.259 322.482 339.722C321.449 340.287 320.56 340.639 319.679 340.971C317.956 341.592 316.397 341.986 314.863 342.329C311.804 343.009 308.892 343.415 305.991 343.692C300.183 344.268 294.61 344.486 288.786 344.354L289.897 330.101Z" fill="#127852"/>
<mask id="mask8_80_9873" style="mask-type:luminance" maskUnits="userSpaceOnUse" x="288" y="302" width="55" height="43">
<path d="M288.789 302.842H342.023V344.391H288.789V302.842Z" fill="white"/>
</mask>
<g mask="url(#mask8_80_9873)">
<g opacity="0.699997">
<path d="M342.023 306.656C340.971 309.264 339.836 311.787 338.7 314.339C337.509 316.863 336.303 319.386 335.055 321.91C333.793 324.405 332.489 326.901 331.059 329.396C330.344 330.644 329.601 331.892 328.774 333.168C327.933 334.472 327.148 335.691 325.676 337.304C324.877 338.187 323.418 339.253 322.479 339.715C321.442 340.29 320.558 340.64 319.675 340.977C317.951 341.594 316.394 341.986 314.866 342.323C311.81 343.01 308.894 343.416 305.992 343.697C304.744 343.823 303.51 343.921 302.29 344.019C297.79 344.342 293.36 344.454 288.789 344.356L289.013 341.412L289.897 330.097C289.897 330.097 294.383 330.378 297.019 330.308C299.683 330.266 302.318 330.224 304.926 330.069C307.506 329.915 310.085 329.733 312.441 329.396C313.604 329.242 314.74 329.032 315.637 328.78C316.058 328.667 316.465 328.541 316.647 328.457C316.955 328.317 316.619 328.569 316.787 328.471C317.222 328.093 318.077 327.083 318.82 326.144C319.591 325.162 320.362 324.111 321.119 323.045C322.661 320.9 324.19 318.671 325.718 316.428L334.873 302.843L342.023 306.656Z" fill="white"/>
</g>
</g>
<mask id="mask9_80_9873" style="mask-type:luminance" maskUnits="userSpaceOnUse" x="288" y="338" width="15" height="7">
<path d="M288.789 338.832H302.29V344.391H288.789V338.832Z" fill="white"/>
</mask>
<g mask="url(#mask9_80_9873)">
<g opacity="0.100006">
<path d="M302.29 344.019C297.79 344.342 293.36 344.454 288.789 344.356L289.013 341.412L290.107 338.832C290.107 338.832 297.453 338.734 302.29 344.019Z" fill="black"/>
</g>
</g>
<path d="M214.913 581.607C214.913 581.607 202.219 572.875 202.999 567.009C203.076 566.434 202.738 565.923 202.128 565.831L191.371 564.204C190.869 564.128 190.332 564.356 190.033 564.774L183.678 573.683L186.534 574.716L188.066 573.641L188.787 575.53C204.286 581.138 211.043 583.396 214.461 583.54C215.401 582.332 214.913 581.607 214.913 581.607Z" fill="black"/>
<path d="M286.392 416.686C286.392 416.686 285.747 418.366 284.611 421.283C283.391 424.437 281.597 429.037 279.438 434.505C277.994 438.15 276.395 442.186 274.671 446.436C266.75 466.12 256.515 490.473 249.743 502.767C236.775 526.294 202.987 570.976 202.987 570.976L189.485 566.039C189.485 566.039 213.796 520.027 226.064 496.71C229.807 489.604 234.111 479.145 238.373 467.731C240.406 462.305 242.425 456.657 244.374 451.063C245.257 448.539 246.126 446.015 246.967 443.532C249.197 436.972 251.286 430.649 253.122 425.012C253.346 424.311 253.571 423.61 253.795 422.938C254.538 420.625 255.239 418.438 255.87 416.419C258.506 408.119 260.146 402.65 260.202 402.441H260.216L272.259 409.003L286.392 416.686Z" fill="#1A2E35"/>
<mask id="mask10_80_9873" style="mask-type:luminance" maskUnits="userSpaceOnUse" x="244" y="416" width="41" height="36">
<path d="M244.374 416.419H284.611V451.062H244.374V416.419Z" fill="white"/>
</mask>
<g mask="url(#mask10_80_9873)">
<g opacity="0.300003">
<path d="M284.611 421.284C283.392 424.438 281.597 429.037 279.438 434.506C277.994 438.15 276.396 442.187 274.671 446.435C263.652 448.652 252.436 450.151 244.374 451.062C245.257 448.538 246.127 446.016 246.968 443.533C249.197 436.972 251.286 430.65 253.123 425.013C253.347 424.312 253.571 423.611 253.795 422.939C254.539 420.625 255.24 418.439 255.87 416.419C263.974 417.526 274.811 419.181 284.611 421.284Z" fill="black"/>
</g>
</g>
<path d="M243.244 337.566C243.244 337.576 243.254 337.587 243.254 337.597C245.197 344.119 246.337 351.7 246.972 359.173C247.463 364.985 247.651 370.708 247.674 375.842C247.694 381.017 247.538 385.596 247.37 389.101C247.143 393.606 246.878 396.38 246.878 396.38L289.475 398.569C302.257 352.248 289.896 330.101 289.896 330.101C289.896 330.101 284.589 329.565 278.475 329.839C277.686 329.862 276.887 329.924 276.066 329.987C270.857 330.422 262.557 332.068 257.015 333.321C255.872 333.572 254.725 333.868 253.605 334.172C248.04 335.689 243.244 337.566 243.244 337.566Z" fill="#127852"/>
<mask id="mask11_80_9873" style="mask-type:luminance" maskUnits="userSpaceOnUse" x="243" y="329" width="53" height="70">
<path d="M243.238 329.763H295.269V398.571H243.238V329.763Z" fill="white"/>
</mask>
<g mask="url(#mask11_80_9873)">
<g opacity="0.699997">
<path d="M289.476 398.57L246.883 396.383C246.883 396.383 247.15 393.607 247.374 389.093C247.43 387.776 247.486 386.275 247.542 384.648C247.627 382.027 247.683 379.054 247.683 375.844C247.669 374.289 247.641 372.675 247.598 371.022C247.598 370.755 247.584 370.49 247.584 370.222C247.514 367.602 247.388 364.88 247.206 362.118C247.122 361.137 247.052 360.157 246.968 359.174C246.912 358.404 246.841 357.619 246.771 356.847C246.561 354.884 246.337 352.921 246.056 350.988C245.986 350.455 245.902 349.921 245.818 349.404C245.692 348.519 245.552 347.664 245.397 346.794C244.823 343.599 244.122 340.485 243.266 337.583C243.266 337.583 243.252 337.569 243.238 337.569C243.238 337.569 248.047 335.691 253.613 334.164C254.721 333.869 255.87 333.575 257.006 333.321C262.558 332.073 270.858 330.421 276.059 329.986C276.886 329.93 277.685 329.858 278.485 329.844C284.583 329.564 289.897 330.098 289.897 330.098C289.897 330.098 302.262 352.234 289.476 398.57Z" fill="white"/>
</g>
</g>
<path d="M315.82 509.419C315.82 509.419 303.65 499.972 304.766 494.161C304.875 493.59 304.568 493.062 303.964 492.935L293.317 490.692C292.821 490.587 292.271 490.785 291.95 491.184L285.093 499.711L287.884 500.907L289.475 499.923L290.088 501.852C305.238 508.339 311.854 510.982 315.258 511.321C316.266 510.17 315.82 509.419 315.82 509.419Z" fill="black"/>
<path d="M267.253 434.758C267.892 434.79 268.248 434.792 268.248 434.792L319.315 442.215L290.244 490.441L304.8 495.982C304.8 495.982 357.435 439.229 345.676 426.29C336.007 415.646 288.619 409.173 288.619 409.173L290.174 398.065L246.343 389.436C227.607 430.451 260.979 434.374 267.253 434.758Z" fill="#1A2E35"/>
<path d="M245.823 393.796L244.894 393.616L245.745 390.663L246.57 390.823L245.823 393.796Z" fill="#1A2E35"/>
<path d="M280.301 400.468L261.589 396.846L262.319 393.877L280.955 397.49L280.301 400.468Z" fill="#1A2E35"/>
<path d="M282.398 397.771L290.309 399.305L289.782 402.302L281.772 400.753L282.398 397.771Z" fill="#1A2E35"/>
<path d="M248.015 391.102L260.881 393.597L260.121 396.564L247.297 394.081L248.015 391.102Z" fill="#1A2E35"/>
<mask id="mask12_80_9873" style="mask-type:luminance" maskUnits="userSpaceOnUse" x="244" y="390" width="47" height="13">
<path d="M244.894 390.662H290.309V402.303H244.894V390.662Z" fill="white"/>
</mask>
<g mask="url(#mask12_80_9873)">
<g opacity="0.199997">
<path d="M245.823 393.796L244.894 393.615L245.745 390.662L246.57 390.822L245.823 393.796Z" fill="white"/>
<path d="M280.3 400.468L261.588 396.846L262.318 393.877L280.954 397.49L280.3 400.468Z" fill="white"/>
<path d="M282.398 397.771L290.309 399.305L289.782 402.302L281.772 400.753L282.398 397.771Z" fill="white"/>
<path d="M248.015 391.102L260.881 393.597L260.121 396.564L247.297 394.081L248.015 391.102Z" fill="white"/>
</g>
</g>
<path d="M275.108 396.944L274.686 398.752C274.619 399.04 274.339 399.225 274.048 399.174L269.363 398.342C269.046 398.285 268.843 397.973 268.921 397.66L269.391 395.783C269.462 395.497 269.746 395.317 270.036 395.372L274.672 396.272C274.982 396.331 275.18 396.637 275.108 396.944Z" stroke="white" stroke-width="0.785333" stroke-miterlimit="10"/>
<path d="M271.226 397.092L269.795 396.839" stroke="white" stroke-width="0.785333" stroke-miterlimit="10" stroke-linecap="round" stroke-linejoin="round"/>
<path d="M261.429 313.992L272.555 323.215C271.466 327.728 273.356 331.892 275.549 332.661C275.549 332.661 277.174 336.532 274.046 337.184C267.703 338.506 260.469 332.364 260.469 332.364C263.824 328.76 262.611 319.754 261.429 313.992Z" fill="#FDB473"/>
<mask id="mask13_80_9873" style="mask-type:luminance" maskUnits="userSpaceOnUse" x="265" y="317" width="8" height="10">
<path d="M265.774 317.756H272.55V326.41H265.774V317.756Z" fill="white"/>
</mask>
<g mask="url(#mask13_80_9873)">
<g opacity="0.199997">
<path d="M265.965 317.756L272.55 323.209C272.289 324.278 272.087 325.36 272.021 326.41C269.551 326.099 266.14 323.455 265.857 320.881C265.715 319.595 265.76 318.358 265.965 317.756Z" fill="black"/>
</g>
</g>
<path d="M271.252 295.77C273.943 297.448 277.591 302.508 273.066 303.725C268.542 304.94 266.624 292.884 271.252 295.77Z" fill="#1A2E35"/>
<path d="M257.354 313.062C262.062 319.27 264.503 323.147 269.971 324.259C278.195 325.931 284.175 317.556 281.41 310.044C278.92 303.282 271.639 294.266 263.616 295.976C255.711 297.663 252.648 306.853 257.354 313.062Z" fill="#FFB670"/>
<path d="M258.744 306.302L253.09 299.703C253.09 299.703 245.62 305.199 249.013 308.526C246.775 313.788 255.66 321.133 263.428 319.623C264.328 314.878 257.409 306.772 257.409 306.772C257.835 306.644 258.286 306.48 258.744 306.302Z" fill="#1A2E35"/>
<path d="M258.448 320.121C260.076 321.443 262.159 321.881 263.868 321.665C266.439 321.338 266.738 318.777 265.196 316.859C263.809 315.133 260.801 313.223 258.619 314.516C256.468 315.792 256.588 318.61 258.448 320.121Z" fill="#FFB670"/>
<path d="M268.335 308.226C268.685 308.753 269.248 308.991 269.591 308.758C269.935 308.524 269.928 307.909 269.577 307.38C269.225 306.853 268.663 306.615 268.319 306.849C267.977 307.082 267.984 307.699 268.335 308.226Z" fill="#1A2E35"/>
<path d="M274.265 304.192C274.616 304.719 275.179 304.957 275.522 304.725C275.865 304.492 275.859 303.875 275.508 303.348C275.157 302.819 274.593 302.583 274.251 302.815C273.908 303.048 273.915 303.665 274.265 304.192Z" fill="#1A2E35"/>
<path d="M272.555 305.737C272.555 305.737 275.727 307.835 278 308.356C277.633 309.802 275.789 310.476 275.789 310.476L272.555 305.737Z" fill="#FF8A35"/>
<path d="M270.907 314.051C270.675 314.176 270.441 314.321 270.207 314.492C270.124 314.554 270.105 314.67 270.165 314.753C270.225 314.839 270.342 314.855 270.423 314.795C272.677 313.156 274.853 313.969 274.876 313.978C274.97 314.016 275.078 313.965 275.114 313.871C275.152 313.775 275.104 313.667 275.009 313.629C274.922 313.595 273.045 312.893 270.907 314.051Z" fill="#1A2E35"/>
<path d="M264.276 306.494C264.406 306.499 264.535 306.438 264.611 306.32C265.512 304.917 266.885 304.881 266.899 304.881C267.104 304.879 267.27 304.71 267.269 304.504C267.269 304.3 267.101 304.134 266.896 304.137C266.823 304.137 265.104 304.182 263.986 305.923C263.873 306.097 263.924 306.327 264.096 306.436C264.152 306.471 264.214 306.491 264.276 306.494Z" fill="#1A2E35"/>
<path d="M274.335 299.405C274.357 299.338 274.36 299.264 274.337 299.191C274.281 298.992 274.077 298.874 273.879 298.929C271.899 299.477 271.386 301.112 271.355 301.182C271.295 301.378 271.405 301.588 271.599 301.651C271.794 301.713 272.002 301.607 272.063 301.412C272.083 301.343 272.494 300.088 274.082 299.649C274.207 299.614 274.298 299.52 274.335 299.405Z" fill="#1A2E35"/>
<path d="M257.41 306.772C257.41 306.772 272.212 300.553 273.119 293.453C274.025 286.354 267.772 289.262 267.772 289.262C267.772 289.262 270.667 289.065 270.384 291.174C270.384 291.174 265.384 287.763 260.622 290.693C260.622 290.693 262.847 290.649 264.019 292.301C264.019 292.301 259.494 293.186 254.418 296.949C249.342 300.712 240.225 314.183 257.41 306.772Z" fill="#1A2E35"/>
<mask id="mask14_80_9873" style="mask-type:luminance" maskUnits="userSpaceOnUse" x="264" y="405" width="26" height="5">
<path d="M264.492 405.268H289.148V409.173H264.492V405.268Z" fill="white"/>
</mask>
<g mask="url(#mask14_80_9873)">
<g opacity="0.300003">
<path d="M288.619 409.173L264.492 406.402C264.492 406.402 274.044 404.834 289.148 405.387L288.619 409.173Z" fill="black"/>
</g>
</g>
<mask id="mask15_80_9873" style="mask-type:luminance" maskUnits="userSpaceOnUse" x="245" y="347" width="4" height="16">
<path d="M245.817 347.987H248.375V362.119H245.817V347.987Z" fill="white"/>
</mask>
<g mask="url(#mask15_80_9873)">
<g opacity="0.100006">
<path d="M247.205 362.119C247.121 361.138 247.051 360.156 246.967 359.175C246.911 358.404 246.841 357.619 246.771 356.848C246.56 354.885 246.336 352.922 246.056 350.987C245.986 350.455 245.902 349.922 245.817 349.403C246.462 348.884 247.177 348.408 247.934 347.987C247.934 347.987 249.308 355.067 247.205 362.119Z" fill="black"/>
</g>
</g>
<path d="M206.999 396.563L202.807 406.404L211.883 408.646C211.883 408.646 215.781 402.181 211.977 397.25L206.999 396.563Z" fill="#FDB473"/>
<path d="M203.459 413.987L210.626 414.04L211.884 408.645L202.806 406.403L203.459 413.987Z" fill="#FDB473"/>
<path d="M247.818 344.375C248.442 350.546 246.335 353.054 246.335 353.054C246.335 353.054 240.36 356.808 237.767 358.732C235.564 360.393 233.403 362.079 231.355 363.769C230.342 364.618 229.365 365.477 228.471 366.329C227.583 367.171 226.755 368.047 226.23 368.725C225.996 368.995 225.761 369.435 225.51 369.827C225.255 370.24 224.988 370.856 224.712 371.356C224.164 372.487 223.618 373.683 223.104 374.94C222.068 377.444 221.086 380.056 220.154 382.706C218.212 387.978 216.404 393.412 214.543 398.753L206.262 396.786C207.104 390.968 208.241 385.3 209.555 379.557C210.248 376.701 211.014 373.841 211.894 370.932C212.331 369.481 212.829 368.002 213.389 366.485C213.726 365.687 213.995 364.968 214.414 364.114C214.856 363.249 215.264 362.402 215.871 361.506C216.994 359.828 218.093 358.565 219.202 357.344C220.31 356.14 221.422 355.028 222.542 353.955C224.771 351.813 227.059 349.864 229.376 347.987C234.017 344.213 238.676 340.768 243.67 337.438C243.67 337.438 247.253 338.791 247.818 344.375Z" fill="#127852"/>
<mask id="mask16_80_9873" style="mask-type:luminance" maskUnits="userSpaceOnUse" x="206" y="337" width="42" height="62">
<path d="M206.264 337.438H247.935V398.754H206.264V337.438Z" fill="white"/>
</mask>
<g mask="url(#mask16_80_9873)">
<g opacity="0.699997">
<path d="M247.819 344.375C248.443 350.546 246.336 353.054 246.336 353.054C246.336 353.054 240.361 356.808 237.768 358.732C235.564 360.393 233.404 362.079 231.356 363.769C230.343 364.618 229.366 365.477 228.472 366.329C227.584 367.171 226.756 368.047 226.231 368.725C225.997 368.995 225.762 369.435 225.511 369.827C225.256 370.24 224.989 370.856 224.713 371.356C224.165 372.487 223.619 373.683 223.105 374.94C222.069 377.444 221.087 380.056 220.155 382.706C218.213 387.978 216.405 393.412 214.544 398.753L206.263 396.786C207.105 390.968 208.242 385.3 209.556 379.557C210.249 376.701 211.015 373.841 211.895 370.932C212.332 369.481 212.83 368.002 213.39 366.485C213.727 365.687 213.996 364.968 214.415 364.114C214.857 363.249 215.265 362.402 215.872 361.506C216.995 359.828 218.094 358.565 219.203 357.344C220.311 356.14 221.423 355.028 222.543 353.955C224.772 351.813 227.06 349.864 229.377 347.987C234.018 344.213 238.677 340.768 243.671 337.438C243.671 337.438 247.254 338.791 247.819 344.375Z" fill="white"/>
</g>
</g>
<path d="M266.644 336.103L269.761 341.001C269.761 341.001 258.893 354.174 238.091 358.52L236.703 362.754L241.125 363.912C241.125 363.912 263.592 358.098 272.556 341.247L277.187 336.088L271.728 334.257L266.644 336.103Z" fill="#127852"/>
<path d="M256.57 333.153L261.636 328.722L271.729 334.257L272.895 328.204L278.224 331.27L279.75 339.099L272.313 335.882L265.658 341.815L256.57 333.153Z" fill="#127852"/>
<mask id="mask17_80_9873" style="mask-type:luminance" maskUnits="userSpaceOnUse" x="256" y="328" width="24" height="14">
<path d="M256.569 328.204H279.749V341.815H256.569V328.204Z" fill="white"/>
</mask>
<g mask="url(#mask17_80_9873)">
<g opacity="0.600006">
<path d="M256.569 333.153L261.635 328.722L271.728 334.257L272.894 328.204L278.223 331.27L279.749 339.099L272.312 335.882L265.657 341.815L256.569 333.153Z" fill="white"/>
</g>
</g>
</g>
<mask id="mask18_80_9873" style="mask-type:luminance" maskUnits="userSpaceOnUse" x="0" y="46" width="701" height="701">
<path d="M0 46.0001H701V747H0V46.0001Z" fill="white"/>
</mask>
<g mask="url(#mask18_80_9873)">
<path d="M395.629 245.465C395.629 245.465 386.202 257.158 376.634 256.188C367.066 255.218 362.177 259.1 362.177 259.1L361.243 263.767L366.373 263.076C366.373 263.076 366.373 259.377 376.357 259.794C386.34 260.209 393.827 251.626 396.739 247.737L395.629 245.465Z" fill="#127852"/>
<path d="M463.352 226.028L463.153 225.106C463.052 224.742 463.107 224.696 462.762 223.786C462.214 222.365 461.291 221.193 460.477 220.462C458.789 218.952 457.399 218.42 456.189 217.942C453.791 217.093 451.878 216.826 449.987 216.593C448.115 216.38 446.34 216.288 444.592 216.242C441.101 216.141 437.738 216.314 434.404 216.523C427.718 216.965 421.287 217.754 414.675 218.897L417.081 232.708C423.126 231.745 429.429 230.863 435.53 230.231C438.589 229.919 441.638 229.73 444.565 229.635C446.024 229.598 447.459 229.604 448.781 229.684C449.711 229.739 450.63 229.845 451.32 229.964C451.364 230.44 451.381 230.96 451.365 231.511C451.277 233.894 450.68 236.686 449.864 239.464C448.218 245.047 445.637 250.849 442.964 256.267L449.618 260.705C453.868 255.329 457.366 249.745 460.262 243.321C461.646 240.083 462.87 236.664 463.425 232.653C463.693 230.644 463.788 228.453 463.352 226.028Z" fill="#127852"/>
<mask id="mask19_80_9873" style="mask-type:luminance" maskUnits="userSpaceOnUse" x="414" y="216" width="50" height="45">
<path d="M414.676 216.212H463.65V260.698H414.676V216.212Z" fill="white"/>
</mask>
<g mask="url(#mask19_80_9873)">
<g opacity="0.699997">
<path d="M463.423 232.658C462.975 235.966 462.049 238.883 460.97 241.617C460.746 242.191 460.507 242.766 460.269 243.327C457.367 249.748 453.862 255.328 449.614 260.698L442.968 256.267C445.632 250.842 448.212 245.051 449.866 239.457C450.427 237.537 450.889 235.602 451.142 233.807C451.268 233.008 451.338 232.237 451.366 231.508C451.38 230.961 451.366 230.443 451.324 229.966C450.637 229.84 449.712 229.742 448.786 229.686C447.455 229.601 446.025 229.601 444.566 229.629C444.454 229.629 444.356 229.643 444.244 229.643C441.412 229.742 438.482 229.938 435.524 230.232C429.607 230.849 423.522 231.69 417.648 232.63C417.452 232.658 417.269 232.686 417.087 232.714L414.676 218.89C421.293 217.754 427.714 216.969 434.402 216.521C437.739 216.31 441.103 216.142 444.594 216.24C446.347 216.282 448.113 216.381 449.992 216.591C451.885 216.829 453.792 217.096 456.189 217.937C457.395 218.413 458.783 218.946 460.479 220.46C461.292 221.189 462.218 222.367 462.764 223.783C463.101 224.694 463.059 224.736 463.157 225.101L463.353 226.026C463.788 228.452 463.69 230.639 463.423 232.658Z" fill="white"/>
</g>
</g>
<mask id="mask20_80_9873" style="mask-type:luminance" maskUnits="userSpaceOnUse" x="417" y="222" width="28" height="11">
<path d="M417.647 222.031H444.243V232.63H417.647V222.031Z" fill="white"/>
</mask>
<g mask="url(#mask20_80_9873)">
<g opacity="0.100006">
<path d="M444.243 229.644C441.411 229.742 438.481 229.938 435.523 230.232C429.607 230.849 423.522 231.691 417.647 232.63C419.793 227.358 421.994 222.031 421.994 222.031C421.994 222.031 431.808 222.97 444.243 229.644Z" fill="black"/>
</g>
</g>
<mask id="mask21_80_9873" style="mask-type:luminance" maskUnits="userSpaceOnUse" x="442" y="233" width="19" height="28">
<path d="M442.968 233.807H460.969V260.698H442.968V233.807Z" fill="white"/>
</mask>
<g mask="url(#mask21_80_9873)">
<g opacity="0.100006">
<path d="M460.969 241.617C460.745 242.191 460.507 242.766 460.268 243.327C457.366 249.748 453.861 255.328 449.613 260.698L442.968 256.267C445.632 250.842 448.211 245.051 449.866 239.457C450.426 237.537 450.889 235.602 451.141 233.807C454.38 235.98 457.689 238.56 460.969 241.617Z" fill="black"/>
</g>
</g>
<path d="M371.367 228.805C371.749 229.29 371.804 229.886 371.486 230.137C371.169 230.386 370.602 230.197 370.22 229.712C369.837 229.227 369.784 228.631 370.099 228.38C370.416 228.13 370.984 228.32 371.367 228.805Z" fill="#1A2E35"/>
<path d="M371.848 229.851C371.848 229.851 372.955 233.517 372.807 235.826C374.297 235.948 375.466 234.431 375.466 234.431L371.848 229.851Z" fill="#FE5652"/>
<path d="M371.015 224.712C371.072 224.644 371.104 224.556 371.1 224.461C371.092 224.26 370.922 224.106 370.722 224.114C368.715 224.204 367.849 225.636 367.812 225.697C367.71 225.87 367.768 226.093 367.94 226.194C368.112 226.295 368.335 226.236 368.436 226.067C368.464 226.02 369.154 224.911 370.754 224.839C370.859 224.835 370.952 224.786 371.015 224.712Z" fill="#1A2E35"/>
<path d="M385.328 221.305C389.96 224.643 398.831 229.925 403.864 227.924C403.864 227.924 408.39 231.69 404.042 241.149C399.261 251.551 396.595 243.747 396.595 243.747C397.847 237.448 393.568 235.658 389.157 234.829L385.328 221.305Z" fill="#FE8A7B"/>
<path d="M386.722 215.006C391.059 221.247 393.915 224.681 393.322 230.111C392.43 238.28 382.927 241.359 376.813 236.539C371.31 232.2 365.141 222.721 369.098 215.749C372.994 208.879 382.385 208.764 386.722 215.006Z" fill="#FE8A7B"/>
<path d="M393.69 225.308C393.039 228.845 381.133 233.685 375.73 226.058C375.73 226.058 368.95 226.003 364.872 221.917C360.795 217.828 361.668 213.395 365.323 210.985C368.544 208.858 376.871 193.202 386.57 204.375C397.102 203.947 394.502 220.895 393.69 225.308Z" fill="#1A2E35"/>
<path d="M373.574 209.3C373.574 209.3 367.321 208.997 363.717 211.863C360.111 214.728 361.129 223.52 362.515 225.179C363.902 226.837 365.381 226.837 365.381 226.837C365.381 226.837 363.254 225.735 363.254 224.115C363.254 224.115 364.178 226.284 368.432 226.837C368.432 226.837 367.219 225.869 367.41 224.643C367.41 224.643 369.713 227.625 375.034 224.643C380.356 221.661 373.574 209.3 373.574 209.3Z" fill="#1A2E35"/>
<path d="M378.894 224.745C380.044 226.37 380.492 228.407 380.389 230.056C380.236 232.535 378.161 232.73 376.529 231.165C375.061 229.757 373.372 226.771 374.332 224.703C375.277 222.668 377.581 222.886 378.894 224.745Z" fill="#FE8A7B"/>
<path d="M391.341 245.465C391.341 245.465 390.176 231.35 399.394 223.423L410.369 224.43C410.369 224.43 404.045 239.863 391.341 245.465Z" fill="#127852"/>
<mask id="mask22_80_9873" style="mask-type:luminance" maskUnits="userSpaceOnUse" x="391" y="223" width="20" height="23">
<path d="M391.294 223.423H410.368V245.465H391.294V223.423Z" fill="white"/>
</mask>
<g mask="url(#mask22_80_9873)">
<g opacity="0.600006">
<path d="M391.341 245.465C391.341 245.465 390.176 231.35 399.394 223.423L410.369 224.43C410.369 224.43 404.045 239.863 391.341 245.465Z" fill="white"/>
</g>
</g>
<path d="M422.985 277.213C422.985 277.213 406.387 260.916 388.039 249.508C388.039 249.508 400.263 220.815 415.737 218.255C415.737 218.255 455.74 230.336 467.347 263.075L422.985 277.213Z" fill="#127852"/>
<path d="M425.093 376.623L417.931 379.662L410.18 363.379L417.343 360.341L425.093 376.623Z" fill="#FE8A7B"/>
<path d="M467.348 263.075L463.124 307.891C460.802 309.609 457.102 310.946 452.637 311.988C443.893 314.022 432.225 314.948 422.149 315.487C410.832 316.106 401.538 316.222 400.698 316.873C398.731 318.404 423.649 369.868 423.649 369.868L411.756 371.35C411.756 371.35 380.498 328.481 376.454 313.589C374.963 308.092 373.46 301.207 383.556 294.773C392.442 289.107 425.532 284.858 425.532 284.858L422.986 277.213L467.348 263.075Z" fill="#1A2E35"/>
<mask id="mask23_80_9873" style="mask-type:luminance" maskUnits="userSpaceOnUse" x="421" y="280" width="32" height="36">
<path d="M421.997 280.044H452.636V315.488H421.997V280.044Z" fill="white"/>
</mask>
<g mask="url(#mask23_80_9873)">
<g opacity="0.199997">
<path d="M452.636 311.987C443.892 314.023 432.224 314.947 422.148 315.488C420.784 298.95 429.106 283.081 429.106 283.081L440.941 280.044L452.636 311.987Z" fill="black"/>
</g>
</g>
<path d="M529.384 370.022L530.652 377.699L513.002 381.398L511.734 373.722L529.384 370.022Z" fill="#FE8A7B"/>
<path d="M531.11 378.634C532.042 379.758 533.064 381.438 532.826 382.01C532.795 382.084 532.724 382.184 532.46 382.193C532.313 382.198 532.18 382.142 532.051 382.021C531.971 381.945 531.897 381.85 531.829 381.741C531.351 380.965 531.173 379.441 531.11 378.634ZM531.029 377.98C530.977 377.924 530.895 377.906 530.824 377.936C530.752 377.965 530.708 378.035 530.709 378.112C530.713 378.245 530.82 381.372 531.8 382.29C532 382.478 532.226 382.571 532.473 382.561C532.912 382.547 533.092 382.331 533.165 382.153C533.378 381.643 532.99 380.748 532.466 379.897C531.979 379.106 531.374 378.352 531.029 377.98Z" fill="#127852"/>
<path d="M529.229 380.61C529.342 379.777 530.264 378.884 530.733 378.477C530.746 379.594 530.282 381.364 529.787 381.57C529.748 381.585 529.626 381.636 529.424 381.371C529.4 381.341 529.379 381.311 529.361 381.281C529.237 381.081 529.195 380.861 529.229 380.61ZM530.965 377.936C530.904 377.911 530.834 377.919 530.782 377.958C530.711 378.013 529.037 379.292 528.863 380.559C528.811 380.946 528.899 381.294 529.131 381.595C529.439 381.999 529.735 381.989 529.929 381.909C530.752 381.57 531.21 379.104 531.075 378.082C531.073 378.057 531.064 378.031 531.05 378.01C531.031 377.978 531.001 377.951 530.965 377.936Z" fill="#127852"/>
<path d="M529.693 377.875L525.238 370.641C525.071 370.369 525.114 370.02 525.343 369.798L530.425 364.863C530.951 364.352 531.816 364.46 532.19 365.091C533.753 367.728 535.922 371.593 537.943 374.872C540.305 378.708 542.554 381.891 545.324 386.388C546.999 389.108 544.714 391.556 543.765 390.572C539.438 386.087 536.712 381.931 531.192 379.153C530.592 378.851 530.045 378.446 529.693 377.875Z" fill="#1A2E35"/>
<path d="M467.347 263.075C467.347 263.075 481.599 299.712 457.556 313.927C457.556 313.927 457.249 356.262 463.327 361.222C470.724 367.261 524.888 370.331 524.888 370.331L524.416 383.782C524.416 383.782 466.431 388.529 448.873 382.231C428.317 374.854 423.738 277.851 423.738 277.851L467.347 263.075Z" fill="#1A2E35"/>
<mask id="mask24_80_9873" style="mask-type:luminance" maskUnits="userSpaceOnUse" x="450" y="282" width="11" height="16">
<path d="M450.871 282.946H460.7V297.827H450.871V282.946Z" fill="white"/>
</mask>
<g mask="url(#mask24_80_9873)">
<g opacity="0.199997">
<path d="M450.87 285.565L459.527 282.946C459.527 282.946 460.716 290.393 460.7 294.381L456.686 297.828L452.888 296.618C452.888 296.618 451.852 288.656 450.87 285.565Z" fill="black"/>
</g>
</g>
<path d="M425.839 277.243L426.959 280.804L423.758 281.796L422.63 278.266L425.839 277.243Z" fill="#1A2E35"/>
<path d="M440.61 272.505L441.814 276.198L428.559 280.307L427.389 276.74L440.61 272.505Z" fill="#1A2E35"/>
<path d="M457.108 267.217L458.31 271.081L443.494 275.673L442.316 271.956L457.108 267.217Z" fill="#1A2E35"/>
<path d="M469.163 267.713L460.037 270.542L460.026 270.543L458.804 266.67L467.862 263.768L469.163 267.713Z" fill="#1A2E35"/>
<mask id="mask25_80_9873" style="mask-type:luminance" maskUnits="userSpaceOnUse" x="422" y="263" width="48" height="19">
<path d="M422.631 263.767H469.163V281.796H422.631V263.767Z" fill="white"/>
</mask>
<g mask="url(#mask25_80_9873)">
<g opacity="0.199997">
<path d="M425.839 277.243L426.959 280.804L423.758 281.796L422.63 278.266L425.839 277.243Z" fill="white"/>
<path d="M440.61 272.505L441.814 276.198L428.559 280.307L427.389 276.74L440.61 272.505Z" fill="white"/>
<path d="M457.108 267.217L458.31 271.081L443.494 275.673L442.316 271.956L457.108 267.217Z" fill="white"/>
<path d="M469.163 267.713L460.037 270.542L460.026 270.543L458.804 266.67L467.862 263.768L469.163 267.713Z" fill="white"/>
</g>
</g>
<path d="M415.128 377.129C413.687 377.369 411.72 377.403 411.347 376.909C411.298 376.845 411.248 376.732 411.372 376.501C411.442 376.372 411.559 376.284 411.727 376.233C411.834 376.204 411.953 376.187 412.083 376.184C412.992 376.163 414.398 376.776 415.128 377.129ZM415.733 377.389C415.807 377.372 415.864 377.31 415.876 377.233C415.885 377.159 415.848 377.084 415.78 377.046C415.664 376.983 412.909 375.499 411.623 375.881C411.36 375.96 411.165 376.109 411.048 376.326C410.84 376.711 410.936 376.978 411.053 377.132C411.386 377.572 412.354 377.686 413.352 377.663C414.281 377.641 415.239 377.499 415.733 377.389Z" fill="#127852"/>
<path d="M414.369 374.509C415.032 375.026 415.338 376.274 415.453 376.882C414.481 376.331 413.187 375.039 413.259 374.509C413.264 374.465 413.283 374.335 413.614 374.293C413.651 374.289 413.688 374.286 413.724 374.284C413.958 374.279 414.17 374.353 414.369 374.509ZM415.803 377.355C415.857 377.317 415.883 377.252 415.875 377.187C415.864 377.098 415.606 375.008 414.598 374.219C414.289 373.979 413.944 373.881 413.567 373.927C413.063 373.991 412.922 374.251 412.894 374.458C412.772 375.342 414.672 376.98 415.621 377.379C415.645 377.39 415.67 377.394 415.697 377.394C415.735 377.393 415.771 377.38 415.803 377.355Z" fill="#127852"/>
<path d="M416.498 376.289L424.992 376.087C425.309 376.08 425.589 376.294 425.667 376.603L427.366 383.48C427.542 384.193 427.014 384.886 426.281 384.89C423.216 384.91 418.783 384.837 414.933 384.927C410.43 385.033 406.546 385.372 401.266 385.496C398.072 385.571 397.109 382.365 398.44 382.041C404.492 380.566 409.458 380.306 414.638 376.939C415.202 376.573 415.826 376.304 416.498 376.289Z" fill="#1A2E35"/>
<mask id="mask26_80_9873" style="mask-type:luminance" maskUnits="userSpaceOnUse" x="388" y="218" width="80" height="60">
<path d="M388.037 218.259H467.348V277.213H388.037V218.259Z" fill="white"/>
</mask>
<g mask="url(#mask26_80_9873)">
<g opacity="0.699997">
<path d="M467.348 263.081L422.989 277.213C422.989 277.213 415.166 269.544 404.328 261.034C402.267 259.422 400.108 257.782 397.865 256.155C394.711 253.856 391.402 251.599 388.037 249.51C388.037 249.51 400.263 220.811 415.741 218.259C415.741 218.259 455.74 230.33 467.348 263.081Z" fill="white"/>
</g>
</g>
<mask id="mask27_80_9873" style="mask-type:luminance" maskUnits="userSpaceOnUse" x="397" y="253" width="8" height="9">
<path d="M397.865 253.533H404.328V261.034H397.865V253.533Z" fill="white"/>
</mask>
<g mask="url(#mask27_80_9873)">
<g opacity="0.100006">
<path d="M404.328 261.034C402.268 259.422 400.108 257.782 397.865 256.155L398.734 253.533C398.734 253.533 402.464 256.674 404.328 261.034Z" fill="black"/>
</g>
</g>
<path d="M340.234 290.309L337.176 291.038C336.412 291.22 335.834 291.842 335.708 292.616L335.018 296.874C334.873 297.773 335.37 298.652 336.216 298.99L338.452 299.882C338.452 299.882 344.904 304.535 350.358 301.529L348.001 295.29L343.388 291.116C342.535 290.344 341.354 290.042 340.234 290.309Z" fill="#FE8A7B"/>
<path d="M395.907 250.641C399.827 252.994 400.171 257.846 400.171 257.846C400.171 257.846 397.089 266.202 395.303 270.36C394.089 273.184 392.828 276.016 391.36 278.831C389.845 281.672 388.388 284.458 385.914 287.532L385.431 288.114L384.856 288.731C384.51 289.121 383.997 289.586 383.497 290.017C383.285 290.216 382.896 290.488 382.57 290.715C382.253 290.935 381.809 291.228 381.68 291.278L380.493 291.894C378.95 292.672 377.504 293.279 376.053 293.876C373.172 295.057 370.321 296.083 367.459 297.067C361.722 298.985 356.016 300.739 350.156 302.215L347.374 294.717C352.629 292.026 357.987 289.474 363.217 286.847C365.836 285.548 368.443 284.242 370.947 282.924C372.181 282.258 373.411 281.576 374.47 280.932L375.225 280.456C375.428 280.34 375.272 280.395 375.258 280.402C375.228 280.406 375.163 280.489 375.208 280.418C375.253 280.343 375.298 280.317 375.427 280.135L375.593 279.924L375.795 279.628C376.93 277.979 378.215 275.457 379.326 272.985C380.437 270.454 381.549 267.843 382.573 265.167C384.608 259.837 386.564 254.278 388.387 248.893C388.387 248.893 391.747 248.146 395.907 250.641Z" fill="#127852"/>
<mask id="mask28_80_9873" style="mask-type:luminance" maskUnits="userSpaceOnUse" x="347" y="248" width="54" height="55">
<path d="M347.374 248.788H400.171V302.215H347.374V248.788Z" fill="white"/>
</mask>
<g mask="url(#mask28_80_9873)">
<g opacity="0.699997">
<path d="M395.907 250.641C399.827 252.994 400.171 257.846 400.171 257.846C400.171 257.846 397.089 266.202 395.303 270.36C394.089 273.184 392.828 276.016 391.36 278.831C389.845 281.672 388.388 284.458 385.914 287.532L385.431 288.114L384.856 288.731C384.51 289.121 383.997 289.586 383.497 290.017C383.285 290.216 382.896 290.488 382.57 290.715C382.253 290.935 381.809 291.228 381.68 291.278L380.493 291.894C378.95 292.672 377.504 293.279 376.053 293.876C373.172 295.057 370.321 296.083 367.459 297.067C361.722 298.985 356.016 300.739 350.156 302.215L347.374 294.717C352.629 292.026 357.987 289.474 363.217 286.847C365.836 285.548 368.443 284.242 370.947 282.924C372.181 282.258 373.411 281.576 374.47 280.932L375.225 280.456C375.428 280.34 375.272 280.395 375.258 280.402C375.228 280.406 375.163 280.489 375.208 280.418C375.253 280.343 375.298 280.317 375.427 280.135L375.593 279.924L375.795 279.628C376.93 277.979 378.215 275.457 379.326 272.985C380.437 270.454 381.549 267.843 382.573 265.167C384.608 259.837 386.564 254.278 388.387 248.893C388.387 248.893 391.747 248.146 395.907 250.641Z" fill="white"/>
</g>
</g>
</g>
<path d="M139.507 622.664H376.282L501.589 521.445L507.083 528.246H537.945L569.388 383.518L538.512 383.58L538.524 383.518L390.419 383.812L408.099 405.7L139.507 622.664Z" fill="#127852"/>
<mask id="mask29_80_9873" style="mask-type:luminance" maskUnits="userSpaceOnUse" x="161" y="0" width="701" height="701">
<path d="M161 6.10352e-05H862V701H161V6.10352e-05Z" fill="white"/>
</mask>
<g mask="url(#mask29_80_9873)">
<mask id="mask30_80_9873" style="mask-type:luminance" maskUnits="userSpaceOnUse" x="139" y="383" width="400" height="240">
<path d="M139.507 383.517H538.525V622.665H139.507V383.517Z" fill="white"/>
</mask>
<g mask="url(#mask30_80_9873)">
<g opacity="0.199997">
<path d="M139.507 622.664H345.42L489.401 506.358L507.083 528.246L538.524 383.518L390.419 383.812L408.099 405.7L139.507 622.664Z" fill="white"/>
</g>
</g>
<path d="M134.688 614.311H304.693C304.613 613.592 304.564 612.863 304.564 612.121C304.564 601.205 313.414 592.357 324.33 592.357C324.572 592.357 324.808 592.384 325.049 592.394C327.526 585.747 333.911 581.004 341.421 581.004C351.077 581.004 358.906 588.833 358.906 598.49C358.906 598.504 358.904 598.516 358.904 598.53C367.466 598.928 374.326 605.762 374.772 614.311H375.567C380.398 614.311 384.353 618.265 384.353 623.099C384.353 627.932 380.398 631.885 375.567 631.885H134.688C129.855 631.885 125.9 627.932 125.9 623.099C125.9 618.265 129.855 614.311 134.688 614.311Z" fill="#127852"/>
<mask id="mask31_80_9873" style="mask-type:luminance" maskUnits="userSpaceOnUse" x="125" y="581" width="260" height="51">
<path d="M125.9 581.004H384.352V631.885H125.9V581.004Z" fill="white"/>
</mask>
<g mask="url(#mask31_80_9873)">
<g opacity="0.699997">
<path d="M134.688 614.311H304.693C304.613 613.592 304.564 612.863 304.564 612.121C304.564 601.205 313.414 592.357 324.33 592.357C324.572 592.357 324.808 592.384 325.049 592.394C327.526 585.747 333.911 581.004 341.421 581.004C351.077 581.004 358.906 588.833 358.906 598.49C358.906 598.504 358.904 598.516 358.904 598.53C367.466 598.928 374.326 605.762 374.772 614.311H375.567C380.398 614.311 384.353 618.265 384.353 623.099C384.353 627.932 380.398 631.885 375.567 631.885H134.688C129.855 631.885 125.9 627.932 125.9 623.099C125.9 618.265 129.855 614.311 134.688 614.311Z" fill="white"/>
</g>
</g>
</g>
</svg>
